<?xml version="1.0" encoding="utf-8"?>
<svg version="1.1" xmlns:xlink="http://www.w3.org/1999/xlink" width="23px" height="20px" xmlns="http://www.w3.org/2000/svg">
  <g transform="matrix(1 0 0 1 -253 -12 )">
    <path d="M 12.5891038696538 18.9462365591398  C 12.0191785471826 19.6487455197133  11.6561439239647 20  11.5 20  C 11.3438560760353 20  10.9808214528174 19.6487455197133  10.4108961303462 18.9462365591398  C 9.84097080787509 18.2437275985663  9.55600814663951 17.7968936678614  9.55600814663951 17.6057347670251  C 9.55600814663951 17.299880525687  9.79998302783435 17.0418160095579  10.287932790224 16.831541218638  C 10.7758825526137 16.621266427718  11.1799049558724 16.5161290322581  11.5 16.5161290322581  C 11.8200950441276 16.5161290322581  12.2241174473863 16.621266427718  12.712067209776 16.831541218638  C 13.2000169721656 17.0418160095579  13.4439918533605 17.299880525687  13.4439918533605 17.6057347670251  C 13.4439918533605 17.7968936678614  13.1590291921249 18.2437275985663  12.5891038696538 18.9462365591398  Z M 15.7568737270876 15.0394265232975  C 15.1674304141208 15.7562724014337  14.8024439918534 16.1146953405018  14.6619144602851 16.1146953405018  C 14.6463000678887 16.1146953405018  14.490156143924 15.9952210274791  14.193482688391 15.7562724014337  C 13.8968092328581 15.5173237753883  13.5005940257977 15.2783751493429  13.0048370672098 15.0394265232975  C 12.5090801086219 14.8004778972521  12.0074677528853 14.6810035842294  11.5 14.6810035842294  C 10.9925322471147 14.6810035842294  10.4909198913781 14.8004778972521  9.99516293279022 15.0394265232975  C 9.49940597420231 15.2783751493429  9.10514256619145 15.5173237753883  8.81237270875764 15.7562724014337  C 8.51960285132383 15.9952210274791  8.36150712830957 16.1146953405018  8.33808553971487 16.1146953405018  C 8.19755600814664 16.1146953405018  7.83256958587916 15.7562724014337  7.24312627291242 15.0394265232975  C 6.65368295994569 14.3225806451613  6.35896130346232 13.8781362007168  6.35896130346232 13.7060931899642  C 6.35896130346232 13.5818399044205  6.3979972844535 13.4719235364397  6.47606924643584 13.3763440860215  C 7.08503054989817 12.6403823178017  7.85013577732519 12.0621266427718  8.7713849287169 11.6415770609319  C 9.69263408010862 11.221027479092  10.602172437203 11.010752688172  11.5 11.010752688172  C 12.397827562797 11.010752688172  13.3073659198914 11.221027479092  14.2286150712831 11.6415770609319  C 15.1498642226748 12.0621266427718  15.9149694501018 12.6403823178017  16.5239307535642 13.3763440860215  C 16.6020027155465 13.4719235364397  16.6410386965377 13.5818399044205  16.6410386965377 13.7060931899642  C 16.6410386965377 13.8781362007168  16.3463170400543 14.3225806451613  15.7568737270876 15.0394265232975  Z M 18.9363543788187 11.1397849462366  C 18.3508146639511 11.8566308243728  17.9916836388323 12.2150537634409  17.8589613034623 12.2150537634409  C 17.7730821452817 12.2150537634409  17.683299389002 12.1768219832736  17.5896130346232 12.1003584229391  C 16.5278343516633 11.0967741935484  15.5441276306857 10.3584229390681  14.6384928716904 9.88530465949821  C 13.7328581126952 9.41218637992831  12.6866938221317 9.17562724014337  11.5 9.17562724014337  C 10.83638832315 9.17562724014337  10.1708248472505 9.28076463560335  9.50330957230143 9.4910394265233  C 8.83579429735234 9.70131421744325  8.25415818058384 9.95459976105137  7.75840122199593 10.2508960573477  C 7.26264426340801 10.547192353644  6.81958587915818 10.8434886499403  6.42922606924644 11.1397849462366  C 6.03886625933469 11.4360812425329  5.73048200950441 11.689366786141  5.5040733197556 11.8996415770609  C 5.27766463000679 12.1099163679809  5.15665308893415 12.2150537634409  5.14103869653768 12.2150537634409  C 5.00831636116768 12.2150537634409  4.64918533604888 11.8566308243728  4.06364562118126 11.1397849462366  C 3.47810590631365 10.4229390681004  3.18533604887984 9.97849462365591  3.18533604887984 9.80645161290323  C 3.18533604887984 9.69175627240143  3.22437202987101 9.58661887694146  3.30244399185336 9.4910394265233  C 4.33299389002037 8.22939068100358  5.58214528173795 7.24970131421744  7.04989816700611 6.55197132616487  C 8.51765105227427 5.8542413381123  10.0010183299389 5.50537634408602  11.5 5.50537634408602  C 12.9989816700611 5.50537634408602  14.4823489477257 5.8542413381123  15.9501018329939 6.55197132616487  C 17.4178547182621 7.24970131421744  18.6670061099796 8.22939068100358  19.6975560081466 9.4910394265233  C 19.775627970129 9.58661887694146  19.8146639511202 9.69175627240143  19.8146639511202 9.80645161290323  C 19.8146639511202 9.97849462365591  19.5218940936864 10.4229390681004  18.9363543788187 11.1397849462366  Z M 22.1158350305499 7.25448028673835  C 21.5263917175832 7.97132616487455  21.1653088934148 8.32974910394265  21.0325865580448 8.32974910394265  C 20.9467073998642 8.32974910394265  20.8608282416836 8.28673835125448  20.7749490835031 8.20071684587814  C 19.377460964019 6.70011947431302  17.9272742701969 5.56989247311828  16.4243890020367 4.81003584229391  C 14.9215037338764 4.05017921146953  13.2800407331976 3.67025089605735  11.5 3.67025089605735  C 9.71995926680244 3.67025089605735  8.07849626612356 4.05017921146953  6.57561099796334 4.81003584229391  C 5.07272572980312 5.56989247311828  3.62253903598099 6.70011947431302  2.22505091649695 8.20071684587814  C 2.13917175831636 8.28673835125448  2.05329260013578 8.32974910394265  1.96741344195519 8.32974910394265  C 1.8346911065852 8.32974910394265  1.47360828241684 7.97132616487455  0.884164969450102 7.25448028673835  C 0.294721656483367 6.53763440860215  0 6.09318996415771  0 5.92114695340502  C 0 5.79689366786141  0.0390359809911745 5.68697729988052  0.117107942973523 5.59139784946237  C 1.57705363204345 3.81362007168459  3.31415478615071 2.43727598566308  5.32841140529532 1.46236559139785  C 7.34266802443992 0.487455197132616  9.39986422267481 0  11.5 0  C 13.6001357773252 0  15.6573319755601 0.487455197132616  17.6715885947047 1.46236559139785  C 19.6858452138493 2.43727598566308  21.4229463679566 3.81362007168459  22.8828920570265 5.59139784946237  C 22.9609640190088 5.68697729988052  23 5.79689366786141  23 5.92114695340502  C 23 6.09318996415771  22.7052783435166 6.53763440860215  22.1158350305499 7.25448028673835  Z " fill-rule="nonzero" fill="#000000" stroke="none" transform="matrix(1 0 0 1 253 12 )" />
  </g>
</svg>