<?xml version="1.0" encoding="utf-8"?>
<svg version="1.1" xmlns:xlink="http://www.w3.org/1999/xlink" width="90px" height="90px" xmlns="http://www.w3.org/2000/svg">
  <g transform="matrix(1 0 0 1 -31 -70 )">
    <path d="M 76 70  C 101.2 70  121 89.8  121 115  C 121 140.2  101.2 160  76 160  C 50.8 160  31 140.2  31 115  C 31 89.8  50.8 70  76 70  Z " fill-rule="nonzero" fill="#8080ff" stroke="none" />
    <path d="M 76 70.5  C 100.92 70.5  120.5 90.08  120.5 115  C 120.5 139.92  100.92 159.5  76 159.5  C 51.08 159.5  31.5 139.92  31.5 115  C 31.5 90.08  51.08 70.5  76 70.5  Z " stroke-width="1" stroke="#797979" fill="none" />
  </g>
</svg>