<?xml version="1.0" encoding="utf-8"?>
<svg version="1.1" xmlns:xlink="http://www.w3.org/1999/xlink" width="59px" height="68px" xmlns="http://www.w3.org/2000/svg">
  <g transform="matrix(1 0 0 1 -222 -228 )">
    <path d="M 33.7142857142857 55  L 33.7142857142857 61  L 54.7857142857143 61  L 54.7857142857143 55  L 33.7142857142857 55  Z M 21.0714285714286 31  L 21.0714285714286 37  L 54.7857142857143 37  L 54.7857142857143 31  L 21.0714285714286 31  Z M 42.1428571428571 7  L 42.1428571428571 13  L 54.7857142857143 13  L 54.7857142857143 7  L 42.1428571428571 7  Z M 58.3744419642857 50.3721590909091  C 58.7914806547619 50.9839015151515  59 51.7083333333333  59 52.5454545454545  L 59 64.9090909090909  C 59 65.7462121212121  58.7914806547619 66.4706439393939  58.3744419642857 67.0823863636364  C 57.9574032738095 67.6941287878788  57.4635416666667 68  56.8928571428571 68  L 2.10714285714286 68  C 1.53645833333333 68  1.04259672619048 67.6941287878788  0.625558035714286 67.0823863636364  C 0.208519345238095 66.4706439393939  0 65.7462121212121  0 64.9090909090909  L 0 52.5454545454545  C 0 51.7083333333333  0.208519345238095 50.9839015151515  0.625558035714286 50.3721590909091  C 1.04259672619048 49.7604166666667  1.53645833333333 49.4545454545455  2.10714285714286 49  L 56.8928571428571 49  C 57.4635416666667 49.4545454545455  57.9574032738095 49.7604166666667  58.3744419642857 50.3721590909091  Z M 58.3744419642857 25.6448863636364  C 58.7914806547619 26.2566287878788  59 26.9810606060606  59 27.8181818181818  L 59 40.1818181818182  C 59 41.0189393939394  58.7914806547619 41.7433712121212  58.3744419642857 42.3551136363636  C 57.9574032738095 42.9668560606061  57.4635416666667 43.2727272727273  56.8928571428571 43  L 2.10714285714286 43  C 1.53645833333333 43.2727272727273  1.04259672619048 42.9668560606061  0.625558035714286 42.3551136363636  C 0.208519345238095 41.7433712121212  0 41.0189393939394  0 40.1818181818182  L 0 27.8181818181818  C 0 26.9810606060606  0.208519345238095 26.2566287878788  0.625558035714286 25.6448863636364  C 1.04259672619048 25.0331439393939  1.53645833333333 24.7272727272727  2.10714285714286 25  L 56.8928571428571 25  C 57.4635416666667 24.7272727272727  57.9574032738095 25.0331439393939  58.3744419642857 25.6448863636364  Z M 58.3744419642857 0.91761363636364  C 58.7914806547619 1.52935606060605  59 2.25378787878787  59 3.09090909090909  L 59 15.4545454545455  C 59 16.2916666666667  58.7914806547619 17.0160984848485  58.3744419642857 17.6278409090909  C 57.9574032738095 18.2395833333333  57.4635416666667 18.5454545454545  56.8928571428571 19  L 2.10714285714286 19  C 1.53645833333333 18.5454545454545  1.04259672619048 18.2395833333333  0.625558035714286 17.6278409090909  C 0.208519345238095 17.0160984848485  0 16.2916666666667  0 15.4545454545455  L 0 3.09090909090909  C 0 2.25378787878787  0.208519345238095 1.52935606060605  0.625558035714286 0.91761363636364  C 1.04259672619048 0.305871212121206  1.53645833333333 0  2.10714285714286 0  L 56.8928571428571 0  C 57.4635416666667 0  57.9574032738095 0.305871212121206  58.3744419642857 0.91761363636364  Z " fill-rule="nonzero" fill="#000000" stroke="none" transform="matrix(1 0 0 1 222 228 )" />
  </g>
</svg>