<?xml version="1.0" encoding="utf-8"?>
<svg version="1.1" xmlns:xlink="http://www.w3.org/1999/xlink" width="59px" height="68px" xmlns="http://www.w3.org/2000/svg">
  <g transform="matrix(1 0 0 1 -222 -384 )">
    <path d="M 55.9897959183673 13.5911458333333  C 56.8869547819128 14.0338541666667  57.5834333733493 14.6684027777778  58.0792316926771 15.4947916666667  C 59.0236094437775 17.1770833333333  59.2360944377751 19.0807291666667  58.7166866746699 21.2057291666667  L 48.9777911164466 61.3151041666667  C 48.5292116846739 63.2039930555556  47.6261504601841 64.7903645833333  46.2686074429772 66.07421875  C 44.9110644257703 67.3580729166667  43.4649859943978 68  41.9303721488595 68  L 9.24309723889556 68  C 7.42517006802721 68  5.67216886754702 67.2105034722222  3.98409363745498 65.6315104166667  C 2.29601840736295 64.0525173611111  1.12144857943177 62.1119791666667  0.460384153661465 59.8098958333333  C -0.1062424969988 57.8324652777778  -0.129851940776311 55.9583333333333  0.389555822328932 54.1875  C 0.389555822328932 54.0694444444444  0.424969987995198 53.6710069444444  0.495798319327731 52.9921875  C 0.566626650660264 52.3133680555556  0.613845538215286 51.7673611111111  0.637454981992797 51.3541666666667  C 0.661064425770308 51.1180555555556  0.625650260104042 50.80078125  0.531212484993998 50.40234375  C 0.436774709883954 50.00390625  0.401360544217687 49.7161458333333  0.424969987995198 49.5390625  C 0.47218887555022 49.2144097222222  0.566626650660264 48.9045138888889  0.70828331332533 48.609375  C 0.849939975990396 48.3142361111111  1.04471788715486 47.9674479166667  1.29261704681873 47.5690104166667  C 1.54051620648259 47.1705729166667  1.73529411764706 46.8237847222222  1.87695078031212 46.5286458333333  C 2.41996798719488 45.4071180555555  2.95118047218888 44.0568576388889  3.47058823529412 42.4778645833333  C 3.98999599839936 40.8988715277778  4.34413765506203 39.5486111111111  4.53301320528211 38.4270833333333  C 4.60384153661465 38.1319444444444  4.60974389755902 37.6892361111111  4.55072028811525 37.0989583333333  C 4.49169667867147 36.5086805555556  4.48579431772709 36.0954861111111  4.53301320528211 35.859375  C 4.60384153661465 35.5347222222222  4.80452180872349 35.1215277777778  5.13505402160864 34.6197916666667  C 5.4655862344938 34.1180555555556  5.66626650660264 33.7786458333333  5.73709483793517 33.6015625  C 6.23289315726291 32.5390625  6.72869147659064 31.1814236111111  7.22448979591837 29.5286458333333  C 7.7202881152461 27.8758680555556  8.01540616246499 26.5477430555556  8.10984393757503 25.5442708333333  C 8.13345338135254 25.2786458333333  8.10394157663065 24.8064236111111  8.02130852340936 24.1276041666667  C 7.93867547018808 23.4487847222222  7.94457783113245 23.0355902777778  8.0390156062425 22.8880208333333  C 8.13345338135254 22.5043402777778  8.39315726290516 22.0542534722222  8.81812725090036 21.5377604166667  C 9.24309723889556 21.0212673611111  9.50280112044818 20.6892361111111  9.59723889555822 20.5416666666667  C 10.0458183273309 19.7743055555556  10.547519007603 18.52734375  11.1023409363745 16.80078125  C 11.6571628651461 15.07421875  11.9817927170868 13.6501736111111  12.0762304921969 12.5286458333333  C 12.0998399359744 12.2925347222222  12.0644257703081 11.9162326388889  11.9699879951981 11.3997395833333  C 11.875550220088 10.8832465277778  11.8519407763105 10.4921875  11.8991596638655 10.2265625  C 11.9463785514206 9.99045138888888  12.0526210484194 9.72482638888888  12.2178871548619 9.4296875  C 12.3831532613045 9.13454861111111  12.5956382553021 8.79513888888888  12.8553421368547 8.41145833333333  C 13.1150460184074 8.02777777777777  13.3157262905162 7.71788194444444  13.4573829531813 7.48177083333333  C 13.6462585034014 7.12760416666667  13.8410364145658 6.67751736111111  14.0417166866747 6.13151041666667  C 14.2423969587835 5.58550347222221  14.4194677871148 5.06901041666667  14.5729291716687 4.58203125  C 14.7263905562225 4.09505208333333  14.9152661064426 3.56380208333333  15.1395558223289 2.98828125  C 15.3638455382153 2.41276041666667  15.594037615046 1.94053819444444  15.8301320528211 1.57161458333333  C 16.0662264905962 1.20269097222221  16.3790516206483 0.855902777777772  16.7686074429772 0.53125  C 17.1581632653061 0.206597222222213  17.5831332533013 0.0368923611111103  18.0435174069628 0.0221354166666692  C 18.5039015606243 0.007378472222213  19.0646258503401 0.0885416666666692  19.7256902761104 0.265625  L 19.6902761104442 0.3984375  C 20.5874349739896 0.1328125  21.1894757903161 0  21.4963985594238 0  L 48.4465786314526 0  C 50.1936774709884 0  51.5394157663065 0.826388888888882  52.483793517407 2.47916666666667  C 53.4281712685074 4.13194444444444  53.640656262505 6.05034722222221  53.1212484993998 8.234375  L 43.4177671068427 48.34375  C 42.5678271308523 51.8559027777778  41.7237895158063 54.12109375  40.8856542617047 55.1393229166667  C 40.0475190076031 56.1575520833333  38.530612244898 56.6666666666667  36.3349339735894 56  L 5.56002400960384 56  C 4.92256902761105 56.6666666666667  4.47398959583834 56.8880208333333  4.21428571428571 57.3307291666667  C 3.95458183273309 57.8029513888889  3.94277711084434 58.4375  4.17887154861945 59.234375  C 4.74549819927971 61.3003472222222  6.4453781512605 62.3333333333333  9.27851140456182 62  L 41.9657863145258 62  C 42.6504601840736 62.3333333333333  43.3115246098439 62.1046006944444  43.9489795918367 61.6471354166667  C 44.5864345738295 61.1896701388889  44.999599839936 60.5772569444444  45.1884753901561 59.8098958333333  L 55.812725090036 16.1145833333333  C 55.9779911964786 15.4652777777778  56.0370148059224 14.6241319444444  55.9897959183673 13.5911458333333  Z M 21.1422569027611 12.75  L 20.3985594237695 15.5833333333333  C 20.3041216486595 15.9670138888889  20.327731092437 16.2990451388889  20.469387755102 16.5794270833333  C 20.6110444177671 16.8598090277778  20.8471388555422 17  21.1776710684274 17  L 42.7094837935174 17  C 43.0164065626251 17  43.3174269707883 16.8598090277778  43.6125450180072 16.5794270833333  C 43.9076630652261 16.2990451388889  44.1024409763906 15.9670138888889  44.1968787515006 15.5833333333333  L 44.9405762304922 12.75  C 45.0350140056022 12.3663194444444  45.0114045618247 12.0342881944444  44.8697478991597 11.75390625  C 44.7280912364946 11.4735243055556  44.4919967987195 11.3333333333333  44.1614645858343 12  L 22.6296518607443 12  C 22.3227290916367 11.3333333333333  22.0217086834734 11.4735243055556  21.7265906362545 11.75390625  C 21.4314725890356 12.0342881944444  21.2366946778712 12.3663194444444  21.1422569027611 12.75  Z M 18.202881152461 24.0833333333333  L 17.4591836734694 26.9166666666667  C 17.3647458983593 27.3003472222222  17.3883553421369 27.6323784722222  17.5300120048019 27.9127604166667  C 17.671668667467 28.1931423611111  17.9077631052421 28.3333333333333  18.2382953181273 29  L 39.7701080432173 29  C 40.0770308123249 28.3333333333333  40.3780512204882 28.1931423611111  40.6731692677071 27.9127604166667  C 40.968287314926 27.6323784722222  41.1630652260904 27.3003472222222  41.2575030012005 26.9166666666667  L 42.0012004801921 24.0833333333333  C 42.0956382553021 23.6996527777778  42.0720288115246 23.3676215277778  41.9303721488595 23.0872395833333  C 41.7887154861945 22.8068576388889  41.5526210484194 22.6666666666667  41.2220888355342 23  L 19.6902761104442 23  C 19.3833533413365 22.6666666666667  19.0823329331733 22.8068576388889  18.7872148859544 23.0872395833333  C 18.4920968387355 23.3676215277778  18.297318927571 23.6996527777778  18.202881152461 24.0833333333333  Z " fill-rule="nonzero" fill="#000000" stroke="none" transform="matrix(1 0 0 1 222 384 )" />
  </g>
</svg>