<?xml version="1.0" encoding="utf-8"?>
<svg version="1.1" xmlns:xlink="http://www.w3.org/1999/xlink" width="59px" height="68px" xmlns="http://www.w3.org/2000/svg">
  <g transform="matrix(1 0 0 1 -47 -228 )">
    <path d="M 40.7161458333333 2.58035714285715  L 56.3880208333333 18.0625  C 56.7465277777778 18.4166666666667  57.1050347222222 18.8720238095238  57.4635416666667 20  L 39 20  L 39 1.51785714285715  C 39.8967013888889 1.87202380952381  40.3576388888889 2.22619047619047  40.7161458333333 2.58035714285715  Z M 35.4921875 23.2232142857143  C 36.2092013888889 23.9315476190476  37.0798611111111 24.2857142857143  38.1041666666667 25  L 59 25  L 59 64.3571428571429  C 59 65.3690476190476  58.6414930555556 66.2291666666667  57.9244791666667 66.9375  C 57.2074652777778 67.6458333333333  56.3368055555556 68  55.3125 68  L 3.6875 68  C 2.66319444444444 68  1.79253472222222 67.6458333333333  1.07552083333333 66.9375  C 0.358506944444444 66.2291666666667  0 65.3690476190476  0 64.3571428571429  L 0 3.64285714285715  C 0 2.63095238095238  0.358506944444444 1.77083333333333  1.07552083333333 1.0625  C 1.79253472222222 0.354166666666669  2.66319444444444 0  3.6875 0  L 34 0  L 34 20.6428571428571  C 34.4166666666667 21.6547619047619  34.7751736111111 22.514880952381  35.4921875 23.2232142857143  Z M 43.904296875 53.0870535714286  C 44.134765625 52.859375  44.25 52.5684523809524  44.25 52.2142857142857  L 44.25 49.7857142857143  C 44.25 49.4315476190476  44.134765625 49.140625  43.904296875 48.9129464285714  C 43.673828125 48.6852678571429  43.3793402777778 48.5714285714286  43.0208333333333 48  L 15.9791666666667 48  C 15.6206597222222 48.5714285714286  15.326171875 48.6852678571429  15.095703125 48.9129464285714  C 14.865234375 49.140625  14.75 49.4315476190476  14.75 49.7857142857143  L 14.75 52.2142857142857  C 14.75 52.5684523809524  14.865234375 52.859375  15.095703125 53.0870535714286  C 15.326171875 53.3147321428571  15.6206597222222 53.4285714285714  15.9791666666667 53  L 43.0208333333333 53  C 43.3793402777778 53.4285714285714  43.673828125 53.3147321428571  43.904296875 53.0870535714286  Z M 43.904296875 43.3727678571429  C 44.134765625 43.1450892857143  44.25 42.8541666666667  44.25 42.5  L 44.25 40.0714285714286  C 44.25 39.7172619047619  44.134765625 39.4263392857143  43.904296875 39.1986607142857  C 43.673828125 38.9709821428571  43.3793402777778 38.8571428571429  43.0208333333333 38  L 15.9791666666667 38  C 15.6206597222222 38.8571428571429  15.326171875 38.9709821428571  15.095703125 39.1986607142857  C 14.865234375 39.4263392857143  14.75 39.7172619047619  14.75 40.0714285714286  L 14.75 42.5  C 14.75 42.8541666666667  14.865234375 43.1450892857143  15.095703125 43.3727678571429  C 15.326171875 43.6004464285714  15.6206597222222 43.7142857142857  15.9791666666667 43  L 43.0208333333333 43  C 43.3793402777778 43.7142857142857  43.673828125 43.6004464285714  43.904296875 43.3727678571429  Z M 43.904296875 33.6584821428571  C 44.134765625 33.4308035714286  44.25 33.1398809523809  44.25 32.7857142857143  L 44.25 30.3571428571429  C 44.25 30.0029761904762  44.134765625 29.7120535714286  43.904296875 29.484375  C 43.673828125 29.2566964285714  43.3793402777778 29.1428571428571  43.0208333333333 30  L 15.9791666666667 30  C 15.6206597222222 29.1428571428571  15.326171875 29.2566964285714  15.095703125 29.484375  C 14.865234375 29.7120535714286  14.75 30.0029761904762  14.75 30.3571428571429  L 14.75 32.7857142857143  C 14.75 33.1398809523809  14.865234375 33.4308035714286  15.095703125 33.6584821428571  C 15.326171875 33.8861607142857  15.6206597222222 34  15.9791666666667 34  L 43.0208333333333 34  C 43.3793402777778 34  43.673828125 33.8861607142857  43.904296875 33.6584821428571  Z " fill-rule="nonzero" fill="#000000" stroke="none" transform="matrix(1 0 0 1 47 228 )" />
  </g>
</svg>