<?xml version="1.0" encoding="utf-8"?>
<svg version="1.1" xmlns:xlink="http://www.w3.org/1999/xlink" width="59px" height="68px" xmlns="http://www.w3.org/2000/svg">
  <g transform="matrix(1 0 0 1 -47 -384 )">
    <path d="M 34.0709635416667 17.3984375  C 34.3014322916667 17.6640625  34.4166666666667 18.0034722222222  34 18.4166666666667  L 34 38.25  C 34.4166666666667 38.6631944444444  34.3014322916667 39.0026041666667  34.0709635416667 39.2682291666667  C 33.8404947916667 39.5338541666667  33.5460069444445 39.6666666666667  33.1875 39  L 20.8958333333333 39  C 20.5373263888889 39.6666666666667  20.2428385416667 39.5338541666667  20.0123697916667 39.2682291666667  C 19.7819010416667 39.0026041666667  19.6666666666667 38.6631944444444  19.6666666666667 38.25  L 19.6666666666667 35.4166666666667  C 19.6666666666667 35.0034722222222  19.7819010416667 34.6640625  20.0123697916667 34.3984375  C 20.2428385416667 34.1328125  20.5373263888889 34  20.8958333333333 34  L 29 34  L 29 18.4166666666667  C 29.5 18.0034722222222  29.615234375 17.6640625  29.845703125 17.3984375  C 30.076171875 17.1328125  30.3706597222222 17  30.7291666666667 17  L 33.1875 17  C 33.5460069444445 17  33.8404947916667 17.1328125  34.0709635416667 17.3984375  Z M 47.591796875 46.0859375  C 49.4611545138889 42.3967013888889  50.3958333333333 38.3680555555556  50.3958333333333 34  C 50.3958333333333 29.6319444444444  49.4611545138889 25.6032986111111  47.591796875 21.9140625  C 45.7224392361111 18.2248263888889  43.1872829861111 15.3029513888889  39.986328125 13.1484375  C 36.7853732638889 10.9939236111111  33.2899305555556 9.91666666666667  29.5 9.91666666666667  C 25.7100694444444 9.91666666666667  22.2146267361111 10.9939236111111  19.013671875 13.1484375  C 15.8127170138889 15.3029513888889  13.2775607638889 18.2248263888889  11.408203125 21.9140625  C 9.53884548611111 25.6032986111111  8.60416666666667 29.6319444444444  8.60416666666667 34  C 8.60416666666667 38.3680555555556  9.53884548611111 42.3967013888889  11.408203125 46.0859375  C 13.2775607638889 49.7751736111111  15.8127170138889 52.6970486111111  19.013671875 54.8515625  C 22.2146267361111 57.0060763888889  25.7100694444444 58.0833333333333  29.5 58.0833333333333  C 33.2899305555556 58.0833333333333  36.7853732638889 57.0060763888889  39.986328125 54.8515625  C 43.1872829861111 52.6970486111111  45.7224392361111 49.7751736111111  47.591796875 46.0859375  Z M 55.0436197916667 16.93359375  C 57.6812065972222 22.1427951388889  59 27.8315972222222  59 34  C 59 40.1684027777778  57.6812065972222 45.8572048611111  55.0436197916667 51.06640625  C 52.4060329861111 56.2756076388889  48.8273654513889 60.4001736111111  44.3076171875 63.4401041666667  C 39.7878689236111 66.4800347222222  34.8519965277778 68  29.5 68  C 24.1480034722222 68  19.2121310763889 66.4800347222222  14.6923828125 63.4401041666667  C 10.1726345486111 60.4001736111111  6.59396701388889 56.2756076388889  3.95638020833333 51.06640625  C 1.31879340277778 45.8572048611111  0 40.1684027777778  0 34  C 0 27.8315972222222  1.31879340277778 22.1427951388889  3.95638020833333 16.93359375  C 6.59396701388889 11.7243923611111  10.1726345486111 7.59982638888888  14.6923828125 4.55989583333333  C 19.2121310763889 1.51996527777777  24.1480034722222 0  29.5 0  C 34.8519965277778 0  39.7878689236111 1.51996527777777  44.3076171875 4.55989583333333  C 48.8273654513889 7.59982638888888  52.4060329861111 11.7243923611111  55.0436197916667 16.93359375  Z " fill-rule="nonzero" fill="#000000" stroke="none" transform="matrix(1 0 0 1 47 384 )" />
  </g>
</svg>