<?xml version="1.0" encoding="utf-8"?>
<svg version="1.1" xmlns:xlink="http://www.w3.org/1999/xlink" width="25px" height="20px" xmlns="http://www.w3.org/2000/svg">
  <g transform="matrix(1 0 0 1 -307 -12 )">
    <path d="M 3.44587053571429 16.7838541666667  C 3.52957589285714 16.8619791666667  3.57142857142857 16.9618055555556  3.57142857142857 17.0833333333333  L 3.57142857142857 19.5833333333333  C 3.57142857142857 19.7048611111111  3.52957589285714 19.8046875  3.44587053571429 19.8828125  C 3.36216517857143 19.9609375  3.25520833333333 20  3.125 20  L 0.446428571428571 20  C 0.316220238095238 20  0.209263392857143 19.9609375  0.125558035714286 19.8828125  C 0.0418526785714286 19.8046875  0 19.7048611111111  0 19.5833333333333  L 0 17.0833333333333  C 0 16.9618055555556  0.0418526785714286 16.8619791666667  0.125558035714286 16.7838541666667  C 0.209263392857143 16.7057291666667  0.316220238095238 16.6666666666667  0.446428571428571 16.6666666666667  L 3.125 16.6666666666667  C 3.25520833333333 16.6666666666667  3.36216517857143 16.7057291666667  3.44587053571429 16.7838541666667  Z M 8.80301339285714 15.1171875  C 8.88671875 15.1953125  8.92857142857143 15.2951388888889  8.92857142857143 15.4166666666667  L 8.92857142857143 19.5833333333333  C 8.92857142857143 19.7048611111111  8.88671875 19.8046875  8.80301339285714 19.8828125  C 8.71930803571429 19.9609375  8.61235119047619 20  8.48214285714286 20  L 5.80357142857143 20  C 5.6733630952381 20  5.56640625 19.9609375  5.48270089285714 19.8828125  C 5.39899553571429 19.8046875  5.35714285714286 19.7048611111111  5.35714285714286 19.5833333333333  L 5.35714285714286 15.4166666666667  C 5.35714285714286 15.2951388888889  5.39899553571429 15.1953125  5.48270089285714 15.1171875  C 5.56640625 15.0390625  5.6733630952381 15  5.80357142857143 15  L 8.48214285714286 15  C 8.61235119047619 15  8.71930803571429 15.0390625  8.80301339285714 15.1171875  Z M 14.16015625 11.7838541666667  C 14.2438616071429 11.8619791666667  14.2857142857143 11.9618055555556  14.2857142857143 12.0833333333333  L 14.2857142857143 19.5833333333333  C 14.2857142857143 19.7048611111111  14.2438616071429 19.8046875  14.16015625 19.8828125  C 14.0764508928571 19.9609375  13.969494047619 20  13.8392857142857 20  L 11.1607142857143 20  C 11.030505952381 20  10.9235491071429 19.9609375  10.83984375 19.8828125  C 10.7561383928571 19.8046875  10.7142857142857 19.7048611111111  10.7142857142857 19.5833333333333  L 10.7142857142857 12.0833333333333  C 10.7142857142857 11.9618055555556  10.7561383928571 11.8619791666667  10.83984375 11.7838541666667  C 10.9235491071429 11.7057291666667  11.030505952381 11.6666666666667  11.1607142857143 11.6666666666667  L 13.8392857142857 11.6666666666667  C 13.969494047619 11.6666666666667  14.0764508928571 11.7057291666667  14.16015625 11.7838541666667  Z M 19.5172991071429 6.78385416666667  C 19.6010044642857 6.86197916666667  19.6428571428571 6.96180555555556  19.6428571428571 7.08333333333333  L 19.6428571428571 19.5833333333333  C 19.6428571428571 19.7048611111111  19.6010044642857 19.8046875  19.5172991071429 19.8828125  C 19.43359375 19.9609375  19.3266369047619 20  19.1964285714286 20  L 16.5178571428571 20  C 16.3876488095238 20  16.2806919642857 19.9609375  16.1969866071429 19.8828125  C 16.11328125 19.8046875  16.0714285714286 19.7048611111111  16 19.5833333333333  L 16 7.08333333333333  C 16.0714285714286 6.96180555555556  16.11328125 6.86197916666667  16.1969866071429 6.78385416666667  C 16.2806919642857 6.70572916666667  16.3876488095238 6.66666666666667  16.5178571428571 6.66666666666667  L 19.1964285714286 6.66666666666667  C 19.3266369047619 6.66666666666667  19.43359375 6.70572916666667  19.5172991071429 6.78385416666667  Z M 24.8744419642857 0.1171875  C 24.9581473214286 0.1953125  25 0.295138888888886  25 0.416666666666667  L 25 19.5833333333333  C 25 19.7048611111111  24.9581473214286 19.8046875  24.8744419642857 19.8828125  C 24.7907366071429 19.9609375  24.6837797619048 20  24.5535714285714 20  L 21.875 20  C 21.7447916666667 20  21.6378348214286 19.9609375  21.5541294642857 19.8828125  C 21.4704241071429 19.8046875  21.4285714285714 19.7048611111111  21 19.5833333333333  L 21 0.416666666666667  C 21.4285714285714 0.295138888888886  21.4704241071429 0.1953125  21.5541294642857 0.1171875  C 21.6378348214286 0.0390625  21.7447916666667 0  21.875 0  L 24.5535714285714 0  C 24.6837797619048 0  24.7907366071429 0.0390625  24.8744419642857 0.1171875  Z " fill-rule="nonzero" fill="#000000" stroke="none" transform="matrix(1 0 0 1 307 12 )" />
  </g>
</svg>