<?xml version="1.0" encoding="utf-8"?>
<svg version="1.1" xmlns:xlink="http://www.w3.org/1999/xlink" width="22px" height="18px" xmlns="http://www.w3.org/2000/svg">
  <g transform="matrix(1 0 0 1 -314 -114 )">
    <path d="M 20.5247395833333 4.482421875  C 21.5082465277778 5.861328125  22 7.3671875  22 9  C 22 10.6328125  21.5082465277778 12.138671875  20.5247395833333 13.517578125  C 19.5412326388889 14.896484375  18.2068142361111 15.98828125  16.521484375 16.79296875  C 14.8361545138889 17.59765625  12.9956597222222 18  11 18  C 9.00434027777778 18  7.16384548611111 17.59765625  5.478515625 16.79296875  C 3.79318576388889 15.98828125  2.45876736111111 14.896484375  1.47526041666667 13.517578125  C 0.491753472222222 12.138671875  0 10.6328125  0 9  C 0 7.3671875  0.491753472222222 5.861328125  1.47526041666667 4.482421875  C 2.45876736111111 3.103515625  3.79318576388889 2.01171875  5.478515625 1.20703125  C 7.16384548611111 0.402343749999998  9.00434027777778 0  11 0  C 12.9956597222222 0  14.8361545138889 0.402343749999998  16.521484375 1.20703125  C 18.2068142361111 2.01171875  19.5412326388889 3.103515625  20.5247395833333 4.482421875  Z " fill-rule="nonzero" fill="#aaaaaa" stroke="none" transform="matrix(1 0 0 1 314 114 )" />
  </g>
</svg>