<?xml version="1.0" encoding="utf-8"?>
<svg version="1.1" xmlns:xlink="http://www.w3.org/1999/xlink" width="235px" height="272px" xmlns="http://www.w3.org/2000/svg">
  <g transform="matrix(1 0 0 1 -78 -145 )">
    <path d="M 43 197  L 64 197  L 64 222  L 43 222  L 43 197  Z M 43 50  L 64 50  L 64 75  L 43 75  L 43 50  Z M 171 50  L 192 50  L 192 75  L 171 75  L 171 50  Z M 22 173  L 22 247  L 86 247  L 86 173  L 22 173  Z M 22 25  L 22 99  L 86 99  L 86 25  L 22 25  Z M 149 25  L 149 99  L 213 99  L 213 25  L 149 25  Z M 0 148  L 107 148  L 107 272  L 0 272  L 0 148  Z M 171 247  L 192 247  L 192 272  L 171 272  L 171 247  Z M 213 247  L 235 247  L 235 272  L 213 272  L 213 247  Z M 213 148  L 235 148  L 235 222  L 171 222  L 171 197  L 149 197  L 149 272  L 128 272  L 128 148  L 192 148  L 192 173  L 213 173  L 213 148  Z M 0 0  L 107 0  L 107 124  L 0 124  L 0 0  Z M 128 0  L 235 0  L 235 124  L 128 124  L 128 0  Z " fill-rule="nonzero" fill="#000000" stroke="none" transform="matrix(1 0 0 1 78 145 )" />
  </g>
</svg>