<?xml version="1.0" encoding="utf-8"?>
<svg version="1.1" xmlns:xlink="http://www.w3.org/1999/xlink" width="35px" height="20px" xmlns="http://www.w3.org/2000/svg">
  <g transform="matrix(1 0 0 1 -336 -12 )">
    <path d="M 4 4  L 29 4  L 29 16  L 4 16  L 4 4  Z M 31.1111111111111 17.5  L 31.1111111111111 13  L 33.0555555555556 13  L 33.0555555555556 7  L 31.1111111111111 7  L 31.1111111111111 2.5  C 31.1111111111111 2.35416666666666  31.0655381944444 2.234375  30.9743923611111 2.140625  C 30.8832465277778 2.046875  30.7667824074074 2  30.625 2  L 2.43055555555556 2  C 2.28877314814815 2  2.17230902777776 2.046875  2.08116319444444 2.140625  C 1.99001736111112 2.234375  1.94444444444444 2.35416666666666  2 2.5  L 2 17.5  C 1.94444444444444 17.6458333333333  1.99001736111112 17.765625  2.08116319444444 17.859375  C 2.17230902777776 17.953125  2.28877314814815 18  2.43055555555556 18  L 30.625 18  C 30.7667824074074 18  30.8832465277778 17.953125  30.9743923611111 17.859375  C 31.0655381944444 17.765625  31.1111111111111 17.6458333333333  31.1111111111111 17.5  Z M 34.4303385416667 5.5859375  C 34.8101128472222 5.9765625  35 6.44791666666666  35 7  L 35 13  C 35 13.5520833333333  34.8101128472222 14.0234375  34.4303385416667 14.4140625  C 34.0505642361111 14.8046875  33.5923032407407 15  33.0555555555556 15  L 33.0555555555556 17.5  C 33.0555555555556 18.1875  32.8175636574074 18.7760416666667  32.3415798611111 19.265625  C 31.8655960648148 19.7552083333333  31.2934027777778 20  30.625 20  L 2.43055555555556 20  C 1.76215277777776 20  1.18995949074073 19.7552083333333  0.71397569444444 19.265625  C 0.237991898148147 18.7760416666667  0 18.1875  0 17.5  L 0 10  L 0 2.5  C 0 1.8125  0.237991898148147 1.22395833333333  0.71397569444444 0.734375  C 1.18995949074073 0.244791666666664  1.76215277777776 0  2.43055555555556 0  L 30.625 0  C 31.2934027777778 0  31.8655960648148 0.244791666666664  32.3415798611111 0.734375  C 32.8175636574074 1.22395833333333  33.0555555555556 1.8125  33.0555555555556 2.5  L 33.0555555555556 5  C 33.5923032407407 5  34.0505642361111 5.1953125  34.4303385416667 5.5859375  Z " fill-rule="nonzero" fill="#333333" stroke="none" fill-opacity="0.713725490196078" transform="matrix(1 0 0 1 336 12 )" />
  </g>
</svg>