<?xml version="1.0" encoding="utf-8"?>
<svg version="1.1" xmlns:xlink="http://www.w3.org/1999/xlink" width="22px" height="20px" xmlns="http://www.w3.org/2000/svg">
  <g transform="matrix(1 0 0 1 -231 -12 )">
    <path d="M 11 19.1071428571429  C 11.1410256410256 19.1071428571429  11.2115384615385 19.047619047619  11.2115384615385 18.9285714285714  C 11.2115384615385 18.8095238095238  11.1410256410256 18.75  11 18.75  C 10.4799679487179 18.75  10.0326522435897 18.5918898809524  9.65805288461539 18.2756696428571  C 9.28345352564103 17.9594494047619  9.09615384615384 17.5818452380952  9.09615384615384 17.1428571428571  C 9.09615384615384 17.0238095238095  9.02564102564103 16.9642857142857  8.88461538461539 16.9642857142857  C 8.74358974358974 16.9642857142857  8.67307692307692 17.0238095238095  8.67307692307692 17.1428571428571  C 8.67307692307692 17.6860119047619  8.90004006410256 18.149181547619  9.35396634615384 18.5323660714286  C 9.80789262820513 18.9155505952381  10.3565705128205 19.1071428571429  11 19.1071428571429  Z M 20.796875 14.7321428571429  C 21.1582532051282 15.0744047619048  21.5592948717949 15.4017857142857  22 15.7142857142857  C 22 16.1011904761905  21.8325320512821 16.4360119047619  21.4975961538462 16.71875  C 21.1626602564103 17.0014880952381  20.7660256410256 17.1428571428571  20.3076923076923 17.1428571428571  L 14.3846153846154 17.1428571428571  C 14.3846153846154 17.9315476190476  14.0540865384615 18.6049107142857  13.3930288461538 19.1629464285714  C 12.7319711538462 19.7209821428571  11.9342948717949 20  11 20  C 10.0657051282051 20  9.26802884615384 19.7209821428571  8.60697115384616 19.1629464285714  C 7.94591346153846 18.6049107142857  7.61538461538462 17.9315476190476  7.61538461538462 17.1428571428571  L 1.69230769230769 17.1428571428571  C 1.23397435897436 17.1428571428571  0.837339743589744 17.0014880952381  0.502403846153846 16.71875  C 0.167467948717949 16.4360119047619  0 16.1011904761905  0 15.7142857142857  C 0.440705128205128 15.4017857142857  0.841746794871795 15.0744047619048  1.203125 14.7321428571429  C 1.56450320512821 14.389880952381  1.93910256410256 13.9453125  2.32692307692308 13.3984375  C 2.71474358974359 12.8515625  3.04306891025641 12.2619047619048  3.31189903846154 11.6294642857143  C 3.58072916666667 10.9970238095238  3.80108173076923 10.2306547619048  3.97295673076923 9.33035714285714  C 4.14483173076923 8.43005952380952  4.23076923076923 7.46279761904762  4.23076923076923 6.42857142857143  C 4.23076923076923 5.29761904761905  4.74639423076923 4.24665178571429  5.77764423076923 3.27566964285714  C 6.80889423076923 2.3046875  8.16185897435897 1.71502976190476  9.83653846153846 1.50669642857143  C 9.76602564102564 1.36532738095238  9.73076923076923 1.2202380952381  9.73076923076923 1.07142857142857  C 9.73076923076923 0.773809523809523  9.85416666666667 0.520833333333333  10.1009615384615 0.3125  C 10.3477564102564 0.104166666666667  10.6474358974359 0  11 0  C 11.3525641025641 0  11.6522435897436 0.104166666666667  11.8990384615385 0.3125  C 12.1458333333333 0.520833333333333  12.2692307692308 0.773809523809523  12.2692307692308 1.07142857142857  C 12.2692307692308 1.2202380952381  12.2339743589744 1.36532738095238  12.1634615384615 1.50669642857143  C 13.838141025641 1.71502976190476  15.1911057692308 2.3046875  16.2223557692308 3.27566964285714  C 17.2536057692308 4.24665178571429  17.7692307692308 5.29761904761905  17.7692307692308 6.42857142857143  C 17.7692307692308 7.46279761904762  17.8551682692308 8.43005952380952  18.0270432692308 9.33035714285714  C 18.1989182692308 10.2306547619048  18.4192708333333 10.9970238095238  18.6881009615385 11.6294642857143  C 18.9569310897436 12.2619047619048  19.2852564102564 12.8515625  19.6730769230769 13.3984375  C 20.0608974358974 13.9453125  20.4354967948718 14.389880952381  20.796875 14.7321428571429  Z " fill-rule="nonzero" fill="#333333" stroke="none" fill-opacity="0.713725490196078" transform="matrix(1 0 0 1 231 12 )" />
  </g>
</svg>