<?xml version="1.0" encoding="utf-8"?>
<svg version="1.1" xmlns:xlink="http://www.w3.org/1999/xlink" width="325px" height="325px" xmlns="http://www.w3.org/2000/svg">
  <g transform="matrix(1 0 0 1 -19 -96 )">
    <path d="M 215.079752604167 37.8743489583333  C 198.3642578125 30.6803385416667  180.837673611111 27.0833333333333  162.5 27.0833333333333  C 144.162326388889 27.0833333333333  126.6357421875 30.6803385416667  109.920247395833 37.8743489583333  C 93.2047526041667 45.068359375  78.8167317708333 54.6956380208333  66.7561848958333 66.7561848958333  C 54.6956380208333 78.8167317708333  45.068359375 93.2047526041667  37.8743489583333 109.920247395833  C 30.6803385416667 126.6357421875  27.0833333333333 144.162326388889  27.0833333333333 162.5  C 27.0833333333333 180.837673611111  30.6803385416667 198.3642578125  37.8743489583333 215.079752604167  C 45.068359375 231.795247395833  54.6956380208333 246.183268229167  66.7561848958333 258.243815104167  C 78.8167317708333 270.304361979167  93.2047526041667 279.931640625  109.920247395833 287.125651041667  C 126.6357421875 294.319661458333  144.162326388889 297.916666666667  162.5 297.916666666667  C 180.837673611111 297.916666666667  198.3642578125 294.319661458333  215.079752604167 287.125651041667  C 231.795247395833 279.931640625  246.183268229167 270.304361979167  258.243815104167 258.243815104167  C 270.304361979167 246.183268229167  279.931640625 231.795247395833  287.125651041667 215.079752604167  C 294.319661458333 198.3642578125  297.916666666667 180.837673611111  297.916666666667 162.5  C 297.916666666667 144.162326388889  294.319661458333 126.6357421875  287.125651041667 109.920247395833  C 279.931640625 93.2047526041667  270.304361979167 78.8167317708333  258.243815104167 66.7561848958333  C 246.183268229167 54.6956380208333  231.795247395833 45.068359375  215.079752604167 37.8743489583333  Z M 303.206380208333 80.9326171875  C 317.735460069444 105.829535590278  325 133.018663194444  325 162.5  C 325 191.981336805556  317.735460069444 219.170464409722  303.206380208333 244.0673828125  C 288.677300347222 268.964301215278  268.964301215278 288.677300347222  244.0673828125 303.206380208333  C 219.170464409722 317.735460069444  191.981336805556 325  162.5 325  C 133.018663194444 325  105.829535590278 317.735460069444  80.9326171875 303.206380208333  C 56.0356987847222 288.677300347222  36.3226996527778 268.964301215278  21.7936197916667 244.0673828125  C 7.26453993055555 219.170464409722  0 191.981336805556  0 162.5  C 0 133.018663194444  7.26453993055555 105.829535590278  21.7936197916667 80.9326171875  C 36.3226996527778 56.0356987847222  56.0356987847222 36.3226996527777  80.9326171875 21.7936197916667  C 105.829535590278 7.26453993055553  133.018663194444 0  162.5 0  C 191.981336805556 0  219.170464409722 7.26453993055553  244.0673828125 21.7936197916667  C 268.964301215278 36.3226996527777  288.677300347222 56.0356987847222  303.206380208333 80.9326171875  Z " fill-rule="nonzero" fill="#95f204" stroke="none" transform="matrix(1 0 0 1 19 96 )" />
  </g>
</svg>