<?xml version="1.0" encoding="utf-8"?>
<svg version="1.1" xmlns:xlink="http://www.w3.org/1999/xlink" width="37px" height="32px" xmlns="http://www.w3.org/2000/svg">
  <g transform="matrix(1 0 0 1 -180 -52 )">
    <path d="M 2.84615384615385 24.5714285714286  L 2.84615384615385 29.7142857142857  L 9.25 29.7142857142857  L 9.25 24.5714285714286  L 2.84615384615385 24.5714285714286  Z M 10.6730769230769 24.5714285714286  L 10.6730769230769 29.7142857142857  L 17.7884615384615 29.7142857142857  L 17.7884615384615 24.5714285714286  L 10.6730769230769 24.5714285714286  Z M 2.84615384615385 17.7142857142857  L 2.84615384615385 23.4285714285714  L 9.25 23.4285714285714  L 9.25 17.7142857142857  L 2.84615384615385 17.7142857142857  Z M 10.6730769230769 17.7142857142857  L 10.6730769230769 23.4285714285714  L 17.7884615384615 23.4285714285714  L 17.7884615384615 17.7142857142857  L 10.6730769230769 17.7142857142857  Z M 2.84615384615385 11.4285714285714  L 2.84615384615385 16.5714285714286  L 9.25 16.5714285714286  L 9.25 11.4285714285714  L 2.84615384615385 11.4285714285714  Z M 19.2115384615385 24.5714285714286  L 19.2115384615385 29.7142857142857  L 26.3269230769231 29.7142857142857  L 26.3269230769231 24.5714285714286  L 19.2115384615385 24.5714285714286  Z M 10.6730769230769 11.4285714285714  L 10.6730769230769 16.5714285714286  L 17.7884615384615 16.5714285714286  L 17.7884615384615 11.4285714285714  L 10.6730769230769 11.4285714285714  Z M 27.75 24.5714285714286  L 27.75 29.7142857142857  L 34.1538461538462 29.7142857142857  L 34.1538461538462 24.5714285714286  L 27.75 24.5714285714286  Z M 19.2115384615385 17.7142857142857  L 19.2115384615385 23.4285714285714  L 26.3269230769231 23.4285714285714  L 26.3269230769231 17.7142857142857  L 19.2115384615385 17.7142857142857  Z M 11.1733774038462 8.40178571428572  C 11.314202724359 8.28869047619047  11.3846153846154 8.1547619047619  11.3846153846154 8  L 11.3846153846154 2.85714285714286  C 11.3846153846154 2.70238095238095  11.314202724359 2.56845238095238  11.1733774038462 2.45535714285714  C 11.0325520833333 2.3422619047619  10.8657852564103 2.28571428571428  10.6730769230769 2.28571428571428  L 9.25 2.28571428571428  C 9.05729166666667 2.28571428571428  8.89052483974359 2.3422619047619  8.74969951923077 2.45535714285714  C 8.60887419871795 2.56845238095238  8.53846153846154 2.70238095238095  8.53846153846154 2.85714285714286  L 8.53846153846154 8  C 8.53846153846154 8.1547619047619  8.60887419871795 8.28869047619047  8.74969951923077 8.40178571428572  C 8.89052483974359 8.51488095238095  9.05729166666667 8.57142857142857  9.25 8.57142857142857  L 10.6730769230769 8.57142857142857  C 10.8657852564103 8.57142857142857  11.0325520833333 8.51488095238095  11.1733774038462 8.40178571428572  Z M 27.75 17.7142857142857  L 27.75 23.4285714285714  L 34.1538461538462 23.4285714285714  L 34.1538461538462 17.7142857142857  L 27.75 17.7142857142857  Z M 19.2115384615385 11.4285714285714  L 19.2115384615385 16.5714285714286  L 26.3269230769231 16.5714285714286  L 26.3269230769231 11.4285714285714  L 19.2115384615385 11.4285714285714  Z M 27.75 11.4285714285714  L 27.75 16.5714285714286  L 34.1538461538462 16.5714285714286  L 34.1538461538462 11.4285714285714  L 27.75 11.4285714285714  Z M 28.2503004807692 8.40178571428572  C 28.3911258012821 8.28869047619047  28.4615384615385 8.1547619047619  28.4615384615385 8  L 28.4615384615385 2.85714285714286  C 28.4615384615385 2.70238095238095  28.3911258012821 2.56845238095238  28.2503004807692 2.45535714285714  C 28.1094751602564 2.3422619047619  27.9427083333333 2.28571428571428  27.75 2.28571428571428  L 26.3269230769231 2.28571428571428  C 26.1342147435897 2.28571428571428  25.9674479166667 2.3422619047619  25.8266225961538 2.45535714285714  C 25.685797275641 2.56845238095238  25.6153846153846 2.70238095238095  25.6153846153846 2.85714285714286  L 25.6153846153846 8  C 25.6153846153846 8.1547619047619  25.685797275641 8.28869047619047  25.8266225961538 8.40178571428572  C 25.9674479166667 8.51488095238095  26.1342147435897 8.57142857142857  26.3269230769231 8.57142857142857  L 27.75 8.57142857142857  C 27.9427083333333 8.57142857142857  28.1094751602564 8.51488095238095  28.2503004807692 8.40178571428572  Z M 36.1550480769231 5.25  C 36.7183493589744 5.70238095238095  37 6.23809523809524  37 6.85714285714286  L 37 29.7142857142857  C 37 30.3333333333333  36.7183493589744 30.8690476190476  36.1550480769231 31.3214285714286  C 35.5917467948718 31.7738095238095  34.9246794871795 32  34.1538461538462 32  L 2.84615384615385 32  C 2.07532051282051 32  1.40825320512821 31.7738095238095  0.844951923076923 31.3214285714286  C 0.281650641025641 30.8690476190476  0 30.3333333333333  0 29.7142857142857  L 0 6.85714285714286  C 0 6.23809523809524  0.281650641025641 5.70238095238095  0.844951923076923 5.25  C 1.40825320512821 4.79761904761904  2.07532051282051 4.57142857142857  2.84615384615385 4.57142857142857  L 5.69230769230769 4.57142857142857  L 5.69230769230769 2.85714285714286  C 5.69230769230769 2.07142857142857  6.04066506410256 1.39880952380952  6.73737980769231 0.839285714285715  C 7.43409455128205 0.279761904761905  8.27163461538462 0  9.25 0  L 10.6730769230769 0  C 11.6514423076923 0  12.4889823717949 0.279761904761905  13.1856971153846 0.839285714285715  C 13.8824118589744 1.39880952380952  14.2307692307692 2.07142857142857  14.2307692307692 2.85714285714286  L 14.2307692307692 4.57142857142857  L 22.7692307692308 4.57142857142857  L 22.7692307692308 2.85714285714286  C 22.7692307692308 2.07142857142857  23.1175881410256 1.39880952380952  23.8143028846154 0.839285714285715  C 24.5110176282051 0.279761904761905  25.3485576923077 0  26.3269230769231 0  L 27.75 0  C 28.7283653846154 0  29.5659054487179 0.279761904761905  30.2626201923077 0.839285714285715  C 30.9593349358974 1.39880952380952  31.3076923076923 2.07142857142857  31.3076923076923 2.85714285714286  L 31.3076923076923 4.57142857142857  L 34.1538461538462 4.57142857142857  C 34.9246794871795 4.57142857142857  35.5917467948718 4.79761904761904  36.1550480769231 5.25  Z " fill-rule="nonzero" fill="#000000" stroke="none" transform="matrix(1 0 0 1 180 52 )" />
  </g>
</svg>