<?xml version="1.0" encoding="utf-8"?>
<svg version="1.1" xmlns:xlink="http://www.w3.org/1999/xlink" width="26px" height="28px" xmlns="http://www.w3.org/2000/svg">
  <g transform="matrix(1 0 0 1 -22 -93 )">
    <path d="M 25.82734375 20.2434895833333  C 25.9424479166667 21.1610243055556  26 22.1362847222222  26 23.1692708333333  C 26 24.4939236111111  25.5768229166667 25.6302083333333  24.73046875 26.578125  C 23.8841145833333 27.5260416666667  22.8651041666667 28  21.6734375 28  L 4.3265625 28  C 3.13489583333333 28  2.11588541666667 27.5260416666667  1.26953125 26.578125  C 0.423177083333333 25.6302083333333  0 24.4939236111111  0 23.1692708333333  C 0 22.1362847222222  0.0575520833333335 21.1610243055556  0.17265625 20.2434895833333  C 0.287760416666667 19.3259548611111  0.501041666666667 18.40234375  0.8125 17.47265625  C 1.12395833333333 16.54296875  1.52005208333333 15.7469618055556  2.00078125 15.0846354166667  C 2.48151041666667 14.4223090277778  3.11796875 13.8815104166667  3.91015625 13.4622395833333  C 4.70234375 13.04296875  5.61302083333333 12.8333333333333  6.6421875 12.8333333333333  C 8.41614583333334 14.3888888888889  10.5354166666667 15.1666666666667  13 15.1666666666667  C 15.4645833333333 15.1666666666667  17.5838541666667 14.3888888888889  19.3578125 12.8333333333333  C 20.3869791666667 12.8333333333333  21.29765625 13.04296875  22.08984375 13.4622395833333  C 22.88203125 13.8815104166667  23.5184895833333 14.4223090277778  23.99921875 15.0846354166667  C 24.4799479166667 15.7469618055556  24.8760416666667 16.54296875  25.1875 17.47265625  C 25.4989583333333 18.40234375  25.7122395833333 19.3259548611111  25.82734375 20.2434895833333  Z M 18.51484375 2.05078125  C 20.03828125 3.41796875  20.8 5.06770833333333  20.8 7  C 20.8 8.93229166666667  20.03828125 10.58203125  18.51484375 11.94921875  C 16.99140625 13.31640625  15.153125 14  13 14  C 10.846875 14  9.00859375 13.31640625  7.48515625 11.94921875  C 5.96171875 10.58203125  5.2 8.93229166666667  5.2 7  C 5.2 5.06770833333333  5.96171875 3.41796875  7.48515625 2.05078125  C 9.00859375 0.68359375  10.846875 0  13 0  C 15.153125 0  16.99140625 0.68359375  18.51484375 2.05078125  Z " fill-rule="nonzero" fill="#000000" stroke="none" fill-opacity="0.745098039215686" transform="matrix(1 0 0 1 22 93 )" />
  </g>
</svg>