<?xml version="1.0" encoding="utf-8"?>
<svg version="1.1" xmlns:xlink="http://www.w3.org/1999/xlink" width="44px" height="38px" xmlns="http://www.w3.org/2000/svg">
  <g transform="matrix(1 0 0 1 -307 -88 )">
    <path d="M 30.7410714285714 33.4302455357143  C 33.4419642857143 32.1932663690476  35.6599702380952 30.5145089285714  37.3950892857143 28.3939732142857  C 37.0349702380952 26.2027529761905  36.3188244047619 24.3826264880952  35.2466517857143 22.93359375  C 34.1744791666667 21.4845610119048  32.6644345238095 20.6469494047619  30.7165178571429 20.4207589285714  C 29.6197916666667 21.4668898809524  28.3143601190476 22.2832961309524  26.8002232142857 22.8699776785714  C 25.2860863095238 23.4566592261905  23.6860119047619 23.75  22 23.75  C 20.3139880952381 23.75  18.7139136904762 23.4566592261905  17.1997767857143 22.8699776785714  C 15.6856398809524 22.2832961309524  14.3802083333333 21.4668898809524  13.2834821428571 20.4207589285714  C 11.3355654761905 20.6469494047619  9.82552083333333 21.4845610119048  8.75334821428572 22.93359375  C 7.6811755952381 24.3826264880952  6.96502976190476 26.2027529761905  6.60491071428571 28.3939732142857  C 8.34002976190476 30.5145089285714  10.5580357142857 32.1932663690476  13.2589285714286 33.4302455357143  C 15.9598214285714 34.6672247023809  18.8735119047619 35.2857142857143  22 35.2857142857143  C 25.1264880952381 35.2857142857143  28.0401785714286 34.6672247023809  30.7410714285714 33.4302455357143  Z M 28.6662946428571 19.3286830357143  C 30.5078125 17.73828125  31.4285714285714 15.8191964285714  31.4285714285714 13.5714285714286  C 31.4285714285714 11.3236607142857  30.5078125 9.40457589285714  28.6662946428571 7.81417410714286  C 26.8247767857143 6.22377232142857  24.6026785714286 5.42857142857143  22 5.42857142857143  C 19.3973214285714 5.42857142857143  17.1752232142857 6.22377232142857  15.3337053571429 7.81417410714286  C 13.4921875 9.40457589285714  12.5714285714286 11.3236607142857  12.5714285714286 13.5714285714286  C 12.5714285714286 15.8191964285714  13.4921875 17.73828125  15.3337053571429 19.3286830357143  C 17.1752232142857 20.9190848214286  19.3973214285714 21.7142857142857  22 21.7142857142857  C 24.6026785714286 21.7142857142857  26.8247767857143 20.9190848214286  28.6662946428571 19.3286830357143  Z M 42.2566964285714 11.6205357142857  C 43.4188988095238 13.9672619047619  44 16.4270833333333  44 19  C 44 21.5729166666667  43.4188988095238 24.0292038690476  42.2566964285714 26.3688616071429  C 41.0944940476191 28.7085193452381  39.5353422619048 30.7300967261905  37.5792410714286 32.43359375  C 35.6231398809524 34.1370907738095  33.2864583333333 35.4906994047619  30.5691964285714 36.4944196428571  C 27.8519345238095 37.4981398809524  24.9955357142857 38  22 38  C 19.0208333333333 38  16.172619047619 37.4981398809524  13.4553571428571 36.4944196428571  C 10.7380952380952 35.4906994047619  8.39732142857143 34.140625  6.43303571428571 32.4441964285714  C 4.46875 30.7477678571429  2.90550595238095 28.7261904761905  1.74330357142857 26.3794642857143  C 0.58110119047619 24.0327380952381  0 21.5729166666667  0 19  C 0 16.4270833333333  0.58110119047619 13.9672619047619  1.74330357142857 11.6205357142857  C 2.90550595238095 9.27380952380952  4.46875 7.25223214285714  6.43303571428571 5.55580357142857  C 8.39732142857143 3.859375  10.7380952380952 2.50930059523809  13.4553571428571 1.50558035714286  C 16.172619047619 0.501860119047619  19.0208333333333 0  22 0  C 24.9791666666667 0  27.827380952381 0.501860119047619  30.5446428571429 1.50558035714286  C 33.2619047619048 2.50930059523809  35.6026785714286 3.859375  37.5669642857143 5.55580357142857  C 39.53125 7.25223214285714  41.0944940476191 9.27380952380952  42.2566964285714 11.6205357142857  Z " fill-rule="nonzero" fill="#d7d7d7" stroke="none" transform="matrix(1 0 0 1 307 88 )" />
  </g>
</svg>