<?xml version="1.0" encoding="utf-8"?>
<svg version="1.1" xmlns:xlink="http://www.w3.org/1999/xlink" width="26px" height="34px" xmlns="http://www.w3.org/2000/svg">
  <g transform="matrix(1 0 0 1 -22 -192 )">
    <path d="M 13 32.4821428571429  C 13.1666666666667 32.4821428571429  13.25 32.3809523809524  13.25 32.1785714285714  C 13.25 31.9761904761905  13.1666666666667 31.875  13 31.875  C 12.3854166666667 31.875  11.8567708333333 31.606212797619  11.4140625 31.0686383928571  C 10.9713541666667 30.5310639880952  10.75 29.8891369047619  10.75 29.1428571428571  C 10.75 28.9404761904762  10.6666666666667 28.8392857142857  10.5 28.8392857142857  C 10.3333333333333 28.8392857142857  10.25 28.9404761904762  10.25 29.1428571428571  C 10.25 30.0662202380952  10.5182291666667 30.8536086309524  11.0546875 31.5050223214286  C 11.5911458333333 32.1564360119048  12.2395833333333 32.4821428571429  13 32.4821428571429  Z M 7 10.9285714285714  C 7 17.6577380952381  5.61458333333333 22.9196428571429  2.84375 26.7142857142857  L 23.15625 26.7142857142857  C 20.3854166666667 22.9196428571429  19 17.6577380952381  19 10.9285714285714  C 19 10.2834821428571  18.875 9.61941964285714  18.625 8.93638392857143  C 18.375 8.25334821428571  18.015625 7.60193452380952  17.546875 6.98214285714286  C 17.078125 6.36235119047619  16.4453125 5.85323660714286  15.6484375 5.45479910714286  C 14.8515625 5.05636160714286  13.96875 4.85714285714286  13 4.85714285714286  C 12.03125 4.85714285714286  11.1484375 5.05636160714286  10.3515625 5.45479910714286  C 9.5546875 5.85323660714286  8.921875 6.36235119047619  8.453125 6.98214285714286  C 7.984375 7.60193452380952  7.625 8.25334821428571  7.375 8.93638392857143  C 7.125 9.61941964285714  7 10.2834821428571  7 10.9285714285714  Z M 24.578125 25.0446428571429  C 25.0052083333333 25.6264880952381  25.4791666666667 26.1830357142857  26 26.7142857142857  C 26 27.3720238095238  25.8020833333333 27.9412202380952  25.40625 28.421875  C 25.0104166666667 28.9025297619048  24.5416666666667 29.1428571428571  24 29.1428571428571  L 17 29.1428571428571  C 17 30.483630952381  16.609375 31.6283482142857  15.828125 32.5770089285714  C 15.046875 33.5256696428571  14.1041666666667 34  13 34  C 11.8958333333333 34  10.953125 33.5256696428571  10.171875 32.5770089285714  C 9.390625 31.6283482142857  9 30.483630952381  9 29.1428571428571  L 2 29.1428571428571  C 1.45833333333333 29.1428571428571  0.989583333333333 28.9025297619048  0.59375 28.421875  C 0.197916666666667 27.9412202380952  0 27.3720238095238  0 26.7142857142857  C 0.520833333333333 26.1830357142857  0.994791666666667 25.6264880952381  1.421875 25.0446428571429  C 1.84895833333333 24.4627976190476  2.29166666666667 23.70703125  2.75 22.77734375  C 3.20833333333333 21.84765625  3.59635416666667 20.8452380952381  3.9140625 19.7700892857143  C 4.23177083333333 18.6949404761905  4.4921875 17.3921130952381  4.6953125 15.8616071428571  C 4.8984375 14.3311011904762  5 12.6867559523809  5 10.9285714285714  C 5 9.00595238095238  5.609375 7.21930803571429  6.828125 5.56863839285714  C 8.046875 3.91796875  9.64583333333333 2.91555059523809  11.625 2.56138392857143  C 11.5416666666667 2.32105654761904  11.5 2.07440476190476  11.5 1.82142857142857  C 11.5 1.31547619047619  11.6458333333333 0.885416666666665  11.9375 0.53125  C 12.2291666666667 0.177083333333335  12.5833333333333 0  13 0  C 13.4166666666667 0  13.7708333333333 0.177083333333335  14.0625 0.53125  C 14.3541666666667 0.885416666666665  14.5 1.31547619047619  14.5 1.82142857142857  C 14.5 2.07440476190476  14.4583333333333 2.32105654761904  14.375 2.56138392857143  C 16.3541666666667 2.91555059523809  17.953125 3.91796875  19.171875 5.56863839285714  C 20.390625 7.21930803571429  21 9.00595238095238  21 10.9285714285714  C 21 12.6867559523809  21.1015625 14.3311011904762  21.3046875 15.8616071428571  C 21.5078125 17.3921130952381  21.7682291666667 18.6949404761905  22.0859375 19.7700892857143  C 22.4036458333333 20.8452380952381  22.7916666666667 21.84765625  23.25 22.77734375  C 23.7083333333333 23.70703125  24.1510416666667 24.4627976190476  24.578125 25.0446428571429  Z " fill-rule="nonzero" fill="#000000" stroke="none" transform="matrix(1 0 0 1 22 192 )" />
  </g>
</svg>