<?xml version="1.0" encoding="utf-8"?>
<svg version="1.1" xmlns:xlink="http://www.w3.org/1999/xlink" width="22px" height="29px" xmlns="http://www.w3.org/2000/svg">
  <g transform="matrix(1 0 0 1 -339 -117 )">
    <path d="M 7.859375 11.044921875  C 7.953125 11.158203125  8 11.3029513888889  8 11.4791666666667  L 8 22.3541666666667  C 8 22.5303819444444  7.953125 22.6751302083333  7.859375 22.7884114583333  C 7.765625 22.9016927083333  7.64583333333333 22.9583333333333  7.5 22.9583333333333  L 6.5 22.9583333333333  C 6.35416666666667 22.9583333333333  6.234375 22.9016927083333  6.140625 22.7884114583333  C 6.046875 22.6751302083333  6 22.5303819444444  6 22.3541666666667  L 6 11.4791666666667  C 6 11.3029513888889  6.046875 11.158203125  6.140625 11.044921875  C 6.234375 10.931640625  6.35416666666667 10.875  6.5 10.875  L 7.5 10.875  C 7.64583333333333 10.875  7.765625 10.931640625  7.859375 11.044921875  Z M 11.859375 11.044921875  C 11.953125 11.158203125  12 11.3029513888889  12 11.4791666666667  L 12 22.3541666666667  C 12 22.5303819444444  11.953125 22.6751302083333  11.859375 22.7884114583333  C 11.765625 22.9016927083333  11.6458333333333 22.9583333333333  11.5 22.9583333333333  L 10.5 22.9583333333333  C 10.3541666666667 22.9583333333333  10.234375 22.9016927083333  10.140625 22.7884114583333  C 10.046875 22.6751302083333  10 22.5303819444444  10 22.3541666666667  L 10 11.4791666666667  C 10 11.3029513888889  10.046875 11.158203125  10.140625 11.044921875  C 10.234375 10.931640625  10.3541666666667 10.875  10.5 10.875  L 11.5 10.875  C 11.6458333333333 10.875  11.765625 10.931640625  11.859375 11.044921875  Z M 15.859375 11.044921875  C 15.953125 11.158203125  16 11.3029513888889  16 11.4791666666667  L 16 22.3541666666667  C 16 22.5303819444444  15.953125 22.6751302083333  15.859375 22.7884114583333  C 15.765625 22.9016927083333  15.6458333333333 22.9583333333333  15.5 22.9583333333333  L 14.5 22.9583333333333  C 14.3541666666667 22.9583333333333  14.234375 22.9016927083333  14.140625 22.7884114583333  C 14.046875 22.6751302083333  14 22.5303819444444  14 22.3541666666667  L 14 11.4791666666667  C 14 11.3029513888889  14.046875 11.158203125  14.140625 11.044921875  C 14.234375 10.931640625  14.3541666666667 10.875  14.5 10.875  L 15.5 10.875  C 15.6458333333333 10.875  15.765625 10.931640625  15.859375 11.044921875  Z M 17.890625 25.9130859375  C 17.9635416666667 25.6802300347222  18 25.4253472222222  18 25.1484375  L 18 7.25  L 4 7.25  L 4 25.1484375  C 4 25.4253472222222  4.03645833333333 25.6802300347222  4.109375 25.9130859375  C 4.18229166666667 26.1459418402778  4.2578125 26.3158637152778  4.3359375 26.4228515625  C 4.4140625 26.5298394097222  4.46875 26.5833333333333  4.5 26.5833333333333  L 17.5 26.5833333333333  C 17.53125 26.5833333333333  17.5859375 26.5298394097222  17.6640625 26.4228515625  C 17.7421875 26.3158637152778  17.8177083333333 26.1459418402778  17.890625 25.9130859375  Z M 8.265625 2.62434895833333  L 7.5 4.83333333333333  L 14.5 4.83333333333333  L 13.75 2.62434895833333  C 13.6770833333333 2.51106770833333  13.5885416666667 2.44184027777778  13.484375 2.41666666666667  L 8.53125 2.41666666666667  C 8.42708333333333 2.44184027777778  8.33854166666667 2.51106770833333  8.265625 2.62434895833333  Z M 21.859375 5.00325520833333  C 21.953125 5.11653645833333  22 5.26128472222222  22 5.4375  L 22 6.64583333333333  C 22 6.82204861111111  21.953125 6.966796875  21.859375 7.080078125  C 21.765625 7.193359375  21.6458333333333 7.25  21.5 7.25  L 20 7.25  L 20 25.1484375  C 20 26.1931423611111  19.7552083333333 27.0962456597222  19.265625 27.8577473958333  C 18.7760416666667 28.6192491319444  18.1875 29  17.5 29  L 4.5 29  C 3.8125 29  3.22395833333333 28.6318359375  2.734375 27.8955078125  C 2.24479166666667 27.1591796875  2 26.2686631944444  2 25.2239583333333  L 2 7.25  L 0.5 7.25  C 0.354166666666667 7.25  0.234375 7.193359375  0.140625 7.080078125  C 0.046875 6.966796875  0 6.82204861111111  0 6.64583333333333  L 0 5.4375  C 0 5.26128472222222  0.046875 5.11653645833333  0.140625 5.00325520833333  C 0.234375 4.88997395833333  0.354166666666667 4.83333333333333  0.5 4.83333333333333  L 5.328125 4.83333333333333  L 6.421875 1.68033854166667  C 6.578125 1.21462673611111  6.859375 0.818142361111109  7.265625 0.490885416666668  C 7.671875 0.16362847222222  8.08333333333333 0  8.5 0  L 13.5 0  C 13.9166666666667 0  14.328125 0.16362847222222  14.734375 0.490885416666668  C 15.140625 0.818142361111109  15.421875 1.21462673611111  15.578125 1.68033854166667  L 16.671875 4.83333333333333  L 21.5 4.83333333333333  C 21.6458333333333 4.83333333333333  21.765625 4.88997395833333  21.859375 5.00325520833333  Z " fill-rule="nonzero" fill="#000000" stroke="none" fill-opacity="0.380392156862745" transform="matrix(1 0 0 1 339 117 )" />
  </g>
</svg>