<?xml version="1.0" encoding="utf-8"?>
<svg version="1.1" xmlns:xlink="http://www.w3.org/1999/xlink" width="35px" height="29px" xmlns="http://www.w3.org/2000/svg">
  <g transform="matrix(1 0 0 1 -28 -63 )">
    <path d="M 21.46484375 17.78515625  C 23.3087940705128 16.2573116987179  24.2307692307692 14.4186698717949  24.2307692307692 12.2692307692308  C 24.2307692307692 10.1197916666667  23.3087940705128 8.28114983974359  21.46484375 6.75330528846154  C 19.6208934294872 5.22546073717949  17.4018429487179 4.46153846153846  14.8076923076923 4.46153846153846  C 12.2135416666667 4.46153846153846  9.99449118589744 5.22546073717949  8.15054086538462 6.75330528846154  C 6.3065905448718 8.28114983974359  5.38461538461539 10.1197916666667  5.38461538461539 12.2692307692308  C 5.38461538461539 14.4186698717949  6.3065905448718 16.2573116987179  8.15054086538462 17.78515625  C 9.99449118589744 19.313000801282  12.2135416666667 20.0769230769231  14.8076923076923 20.0769230769231  C 17.4018429487179 20.0769230769231  19.6208934294872 19.313000801282  21.46484375 17.78515625  Z M 34.2217548076923 25.2007211538462  C 34.7405849358974 25.630608974359  35 26.1534455128205  35 26.7692307692308  C 35 27.3733974358974  34.7335737179487 27.896233974359  34.2007211538462 28.3377403846154  C 33.6678685897436 28.7792467948718  33.036858974359 29  32.3076923076923 29  C 31.5504807692308 29  30.9194711538462 28.7792467948718  30.4146634615385 28.3377403846154  L 23.2001201923077 22.3774038461538  C 20.6901041666667 23.818108974359  17.8926282051282 24.5384615384615  14.8076923076923 24.5384615384615  C 12.802483974359 24.5384615384615  10.8849158653846 24.2160456730769  9.05498798076923 23.5712139423077  C 7.22506009615385 22.9263822115385  5.64753605769231 22.0549879807692  4.32241586538462 20.95703125  C 2.99729567307692 19.8590745192308  1.94561298076923 18.5519831730769  1.16736778846154 17.0357572115385  C 0.389122596153846 15.51953125  0 13.9306891025641  0 12.2692307692308  C 0 10.6077724358974  0.389122596153846 9.01893028846154  1.16736778846154 7.50270432692308  C 1.94561298076923 5.98647836538462  2.99729567307692 4.67938701923077  4.32241586538462 3.58143028846154  C 5.64753605769231 2.48347355769231  7.22506009615385 1.61207932692308  9.05498798076923 0.967247596153847  C 10.8849158653846 0.322415865384615  12.802483974359 0  14.8076923076923 0  C 16.8129006410256 0  18.73046875 0.322415865384615  20.5603966346154 0.967247596153847  C 22.3903245192308 1.61207932692308  23.9678485576923 2.48347355769231  25.29296875 3.58143028846154  C 26.6180889423077 4.67938701923077  27.6697716346154 5.98647836538462  28.4480168269231 7.50270432692308  C 29.2262620192308 9.01893028846154  29.6153846153846 10.6077724358974  29.6153846153846 12.2692307692308  C 29.6153846153846 14.8253205128205  28.7459935897436 17.1432291666667  27.0072115384615 19.2229567307692  L 34.2217548076923 25.2007211538462  Z " fill-rule="nonzero" fill="#facd91" stroke="none" transform="matrix(1 0 0 1 28 63 )" />
  </g>
</svg>