<?xml version="1.0" encoding="utf-8"?>
<svg version="1.1" xmlns:xlink="http://www.w3.org/1999/xlink" width="10px" height="10px" xmlns="http://www.w3.org/2000/svg">
  <g transform="matrix(1 0 0 1 -50 -252 )">
    <path d="M 55 252  C 57.8 252  60 254.2  60 257  C 60 259.8  57.8 262  55 262  C 52.2 262  50 259.8  50 257  C 50 254.2  52.2 252  55 252  Z " fill-rule="nonzero" fill="#8080ff" stroke="none" />
    <path d="M 55 252.5  C 57.52 252.5  59.5 254.48  59.5 257  C 59.5 259.52  57.52 261.5  55 261.5  C 52.48 261.5  50.5 259.52  50.5 257  C 50.5 254.48  52.48 252.5  55 252.5  Z " stroke-width="1" stroke="#797979" fill="none" />
  </g>
</svg>