<?xml version="1.0" encoding="utf-8"?>
<svg version="1.1" xmlns:xlink="http://www.w3.org/1999/xlink" width="50px" height="46px" xmlns="http://www.w3.org/2000/svg">
  <g transform="matrix(1 0 0 1 -42 -56 )">
    <path d="M 30.6640625 28.2109375  C 33.2982772435897 25.7874599358974  34.6153846153846 22.8709935897436  34.6153846153846 19.4615384615385  C 34.6153846153846 16.0520833333333  33.2982772435897 13.1356169871795  30.6640625 10.7121394230769  C 28.0298477564103 8.28866185897436  24.8597756410256 7.07692307692308  21.1538461538462 7.07692307692308  C 17.4479166666667 7.07692307692308  14.2778445512821 8.28866185897436  11.6436298076923 10.7121394230769  C 9.00941506410256 13.1356169871795  7.69230769230769 16.0520833333333  7.69230769230769 19.4615384615385  C 7.69230769230769 22.8709935897436  9.00941506410256 25.7874599358974  11.6436298076923 28.2109375  C 14.2778445512821 30.6344150641026  17.4479166666667 31.8461538461538  21.1538461538462 31.8461538461538  C 24.8597756410256 31.8461538461538  28.0298477564103 30.6344150641026  30.6640625 28.2109375  Z M 48.8882211538462 39.9735576923077  C 49.6294070512821 40.6554487179487  50 41.4847756410256  50 42.4615384615385  C 50 43.4198717948718  49.619391025641 44.2491987179487  48.8581730769231 44.9495192307692  C 48.0969551282051 45.6498397435897  47.1955128205128 46  46.1538461538462 46  C 45.0721153846154 46  44.1706730769231 45.6498397435897  43.4495192307692 44.9495192307692  L 33.1430288461538 35.4951923076923  C 29.5572916666667 37.7804487179487  25.5608974358974 38.9230769230769  21.1538461538462 38.9230769230769  C 18.2892628205128 38.9230769230769  15.5498798076923 38.4116586538462  12.9356971153846 37.3888221153846  C 10.3215144230769 36.3659855769231  8.06790865384615 34.9837740384615  6.17487980769231 33.2421875  C 4.28185096153846 31.5006009615385  2.77944711538462 29.4272836538462  1.66766826923077 27.0222355769231  C 0.555889423076923 24.6171875  0 22.0969551282051  0 19.4615384615385  C 0 16.8261217948718  0.555889423076923 14.3058894230769  1.66766826923077 11.9008413461538  C 2.77944711538462 9.49579326923077  4.28185096153846 7.42247596153846  6.17487980769231 5.68088942307692  C 8.06790865384615 3.93930288461539  10.3215144230769 2.55709134615385  12.9356971153846 1.53425480769231  C 15.5498798076923 0.511418269230768  18.2892628205128 0  21.1538461538462 0  C 24.0184294871795 0  26.7578125 0.511418269230768  29.3719951923077 1.53425480769231  C 31.9861778846154 2.55709134615385  34.2397836538462 3.93930288461539  36.1328125 5.68088942307692  C 38.0258413461538 7.42247596153846  39.5282451923077 9.49579326923077  40.6400240384615 11.9008413461538  C 41.7518028846154 14.3058894230769  42.3076923076923 16.8261217948718  42.3076923076923 19.4615384615385  C 42.3076923076923 23.5160256410256  41.0657051282051 27.1927083333333  38.5817307692308 30.4915865384615  L 48.8882211538462 39.9735576923077  Z " fill-rule="nonzero" fill="#facd91" stroke="none" transform="matrix(1 0 0 1 42 56 )" />
  </g>
</svg>