<?xml version="1.0" encoding="utf-8"?>
<svg version="1.1" xmlns:xlink="http://www.w3.org/1999/xlink" width="295px" height="251px" xmlns="http://www.w3.org/2000/svg">
  <g transform="matrix(1 0 0 1 -40 -136 )">
    <path d="M 206.104910714286 220.815569196429  C 224.213169642857 212.644996279762  239.083891369048 201.556361607143  250.717075892857 187.549665178571  C 248.302641369048 173.076078869048  243.501209077381 161.053664434524  236.312779017857 151.482421875  C 229.124348958333 141.911179315476  219.000186011905 136.37853422619  205.940290178571 134.884486607143  C 198.587239583333 141.794456845238  189.834914434524 147.187034970238  179.683314732143 151.062220982143  C 169.531715029762 154.937406994048  158.803943452381 156.875  147.5 156.875  C 136.196056547619 156.875  125.468284970238 154.937406994048  115.316685267857 151.062220982143  C 105.165085565476 147.187034970238  96.4127604166667 141.794456845238  89.0597098214286 134.884486607143  C 75.9998139880952 136.37853422619  65.8756510416667 141.911179315476  58.6872209821429 151.482421875  C 51.4987909226191 161.053664434524  46.6973586309524 173.076078869048  44.2829241071429 187.549665178571  C 55.9161086309524 201.556361607143  70.7868303571429 212.644996279762  88.8950892857143 220.815569196429  C 107.003348214286 228.986142113095  126.538318452381 233.071428571429  147.5 233.071428571429  C 168.461681547619 233.071428571429  187.996651785714 228.986142113095  206.104910714286 220.815569196429  Z M 192.194475446429 127.671037946429  C 204.541015625 117.166015625  210.714285714286 104.489955357143  210.714285714286 89.6428571428571  C 210.714285714286 74.7957589285714  204.541015625 62.1196986607143  192.194475446429 51.6146763392857  C 179.847935267857 41.1096540178571  164.949776785714 35.8571428571429  147.5 35.8571428571429  C 130.050223214286 35.8571428571429  115.152064732143 41.1096540178571  102.805524553571 51.6146763392857  C 90.458984375 62.1196986607143  84.2857142857143 74.7957589285714  84.2857142857143 89.6428571428571  C 84.2857142857143 104.489955357143  90.458984375 117.166015625  102.805524553571 127.671037946429  C 115.152064732143 138.176060267857  130.050223214286 143.428571428571  147.5 143.428571428571  C 164.949776785714 143.428571428571  179.847935267857 138.176060267857  192.194475446429 127.671037946429  Z M 283.311941964286 76.7566964285714  C 291.103980654762 92.2574404761905  295 108.505208333333  295 125.5  C 295 142.494791666667  291.103980654762 158.719215029762  283.311941964286 174.173270089286  C 275.51990327381 189.62732514881  265.066499255952 202.980375744048  251.951729910714 214.232421875  C 238.836960565476 225.484468005952  223.170572916667 234.42540922619  204.952566964286 241.055245535714  C 186.734561011905 247.685081845238  167.583705357143 251  147.5 251  C 127.526041666667 251  108.43005952381 247.685081845238  90.2120535714286 241.055245535714  C 71.9940476190476 234.42540922619  56.3002232142857 225.5078125  43.1305803571429 214.302455357143  C 29.9609375 203.097098214286  19.4800967261905 189.744047619048  11.6880580357143 174.243303571429  C 3.89601934523809 158.74255952381  0 142.494791666667  0 125.5  C 0 108.505208333333  3.89601934523809 92.2574404761905  11.6880580357143 76.7566964285714  C 19.4800967261905 61.2559523809524  29.9609375 47.9029017857143  43.1305803571429 36.6975446428571  C 56.3002232142857 25.4921875  71.9940476190476 16.5745907738095  90.2120535714286 9.94475446428571  C 108.43005952381 3.3149181547619  127.526041666667 0  147.5 0  C 167.473958333333 0  186.569940476191 3.3149181547619  204.787946428571 9.94475446428571  C 223.005952380952 16.5745907738095  238.699776785714 25.4921875  251.869419642857 36.6975446428571  C 265.0390625 47.9029017857143  275.51990327381 61.2559523809524  283.311941964286 76.7566964285714  Z " fill-rule="nonzero" fill="#d7d7d7" stroke="none" transform="matrix(1 0 0 1 40 136 )" />
  </g>
</svg>