<?xml version="1.0" encoding="utf-8"?>
<svg version="1.1" xmlns:xlink="http://www.w3.org/1999/xlink" width="35px" height="32px" xmlns="http://www.w3.org/2000/svg">
  <g transform="matrix(1 0 0 1 -297 -90 )">
    <path d="M 24.453125 28.1517857142857  C 26.6015625 27.1101190476191  28.3658854166667 25.6964285714286  29.74609375 23.9107142857143  C 29.4596354166667 22.0654761904762  28.8899739583333 20.5327380952381  28.037109375 19.3125  C 27.1842447916667 18.0922619047619  25.9830729166667 17.3869047619048  24.43359375 17.1964285714286  C 23.5611979166667 18.0773809523809  22.5227864583333 18.7648809523809  21.318359375 19.2589285714286  C 20.1139322916667 19.7529761904762  18.8411458333333 20  17.5 20  C 16.1588541666667 20  14.8860677083333 19.7529761904762  13.681640625 19.2589285714286  C 12.4772135416667 18.7648809523809  11.4388020833333 18.0773809523809  10.56640625 17.1964285714286  C 9.01692708333333 17.3869047619048  7.81575520833333 18.0922619047619  6.962890625 19.3125  C 6.11002604166667 20.5327380952381  5.54036458333333 22.0654761904762  5.25390625 23.9107142857143  C 6.63411458333333 25.6964285714286  8.3984375 27.1101190476191  10.546875 28.1517857142857  C 12.6953125 29.1934523809524  15.0130208333333 29.7142857142857  17.5 29.7142857142857  C 19.9869791666667 29.7142857142857  22.3046875 29.1934523809524  24.453125 28.1517857142857  Z M 22.802734375 16.2767857142857  C 24.267578125 14.9375  25 13.3214285714286  25 11.4285714285714  C 25 9.53571428571428  24.267578125 7.91964285714286  22.802734375 6.58035714285714  C 21.337890625 5.24107142857143  19.5703125 4.57142857142857  17.5 4.57142857142857  C 15.4296875 4.57142857142857  13.662109375 5.24107142857143  12.197265625 6.58035714285714  C 10.732421875 7.91964285714286  10 9.53571428571428  10 11.4285714285714  C 10 13.3214285714286  10.732421875 14.9375  12.197265625 16.2767857142857  C 13.662109375 17.6160714285714  15.4296875 18.2857142857143  17.5 18.2857142857143  C 19.5703125 18.2857142857143  21.337890625 17.6160714285714  22.802734375 16.2767857142857  Z M 33.61328125 9.78571428571428  C 34.5377604166667 11.7619047619048  35 13.8333333333333  35 16  C 35 18.1666666666667  34.5377604166667 20.235119047619  33.61328125 22.2053571428571  C 32.6888020833333 24.1755952380952  31.4485677083333 25.8779761904762  29.892578125 27.3125  C 28.3365885416667 28.7470238095238  26.4778645833333 29.8869047619048  24.31640625 30.7321428571429  C 22.1549479166667 31.577380952381  19.8828125 32  17.5 32  C 15.1302083333333 32  12.8645833333333 31.577380952381  10.703125 30.7321428571429  C 8.54166666666667 29.8869047619048  6.6796875 28.75  5.1171875 27.3214285714286  C 3.5546875 25.8928571428571  2.31119791666667 24.1904761904762  1.38671875 22.2142857142857  C 0.462239583333333 20.2380952380952  0 18.1666666666667  0 16  C 0 13.8333333333333  0.462239583333333 11.7619047619048  1.38671875 9.78571428571428  C 2.31119791666667 7.80952380952381  3.5546875 6.10714285714286  5.1171875 4.67857142857143  C 6.6796875 3.25  8.54166666666667 2.11309523809524  10.703125 1.26785714285714  C 12.8645833333333 0.422619047619047  15.1302083333333 0  17.5 0  C 19.8697916666667 0  22.1354166666667 0.422619047619047  24.296875 1.26785714285714  C 26.4583333333333 2.11309523809524  28.3203125 3.25  29.8828125 4.67857142857143  C 31.4453125 6.10714285714286  32.6888020833333 7.80952380952381  33.61328125 9.78571428571428  Z " fill-rule="nonzero" fill="#d7d7d7" stroke="none" transform="matrix(1 0 0 1 297 90 )" />
  </g>
</svg>