<?xml version="1.0" encoding="utf-8"?>
<svg version="1.1" xmlns:xlink="http://www.w3.org/1999/xlink" width="23px" height="24px" xmlns="http://www.w3.org/2000/svg">
  <g transform="matrix(1 0 0 1 -281 -163 )">
    <path d="M 22.0865885416667 7.34375  C 22.6955295138889 8.82291666666667  23 10.375  23 12  C 23 13.625  22.6955295138889 15.1770833333333  22.0865885416667 16.65625  C 21.4776475694444 18.1354166666667  20.6590711805556 19.4114583333333  19.630859375 20.484375  C 18.6026475694444 21.5572916666667  17.3797743055556 22.4114583333333  15.9622395833333 23.046875  C 14.5447048611111 23.6822916666667  13.0572916666667 24  11.5 24  C 9.78298611111111 24  8.15082465277778 23.6223958333333  6.603515625 22.8671875  C 5.05620659722222 22.1119791666667  3.73849826388889 21.046875  2.650390625 19.671875  C 2.58051215277778 19.5677083333333  2.54806857638889 19.4505208333333  2.55305989583333 19.3203125  C 2.55805121527778 19.1901041666667  2.60047743055556 19.0833333333333  2.68033854166667 19  L 4.73177083333333 16.84375  C 4.83159722222222 16.75  4.95638020833333 16.703125  5.10611979166667 16.703125  C 5.26584201388889 16.7239583333333  5.38064236111111 16.7864583333333  5.45052083333333 16.890625  C 6.17925347222222 17.8802083333333  7.07269965277778 18.6458333333333  8.130859375 19.1875  C 9.18901909722222 19.7291666666667  10.3120659722222 20  11.5 20  C 12.5381944444444 20  13.5289713541667 19.7890625  14.4723307291667 19.3671875  C 15.4156901041667 18.9453125  16.2317708333333 18.375  16.9205729166667 17.65625  C 17.609375 16.9375  18.1559244791667 16.0859375  18.5602213541667 15.1015625  C 18.9645182291667 14.1171875  19.1666666666667 13.0833333333333  19.1666666666667 12  C 19.1666666666667 10.9166666666667  18.9645182291667 9.8828125  18.5602213541667 8.8984375  C 18.1559244791667 7.9140625  17.609375 7.0625  16.9205729166667 6.34375  C 16.2317708333333 5.625  15.4156901041667 5.0546875  14.4723307291667 4.6328125  C 13.5289713541667 4.2109375  12.5381944444444 4  11.5 4  C 10.5217013888889 4  9.58333333333333 4.18489583333333  8.68489583333333 4.5546875  C 7.78645833333333 4.92447916666666  6.98784722222222 5.453125  6.2890625 6.140625  L 8.34049479166667 8.296875  C 8.64995659722222 8.609375  8.71983506944444 8.96875  8.55013020833333 9.375  C 8.38042534722222 9.79166666666667  8.0859375 10  7.66666666666667 10  L 0.958333333333333 10  C 0.698784722222222 10  0.474175347222222 9.90104166666667  0.284505208333333 9.703125  C 0.0948350694444444 9.50520833333333  0 9.27083333333333  0 9  L 0 2  C 0 1.5625  0.199652777777778 1.25520833333333  0.598958333333333 1.078125  C 0.98828125 0.901041666666664  1.33268229166667 0.973958333333333  1.63216145833333 1.296875  L 3.57877604166667 3.3125  C 4.64691840277778 2.26041666666666  5.86729600694444 1.4453125  7.23990885416667 0.8671875  C 8.61252170138889 0.289062500000001  10.0325520833333 0  11.5 0  C 13.0572916666667 0  14.5447048611111 0.317708333333333  15.9622395833333 0.953124999999999  C 17.3797743055556 1.58854166666667  18.6026475694444 2.44270833333333  19.630859375 3.515625  C 20.6590711805556 4.58854166666667  21.4776475694444 5.86458333333333  22.0865885416667 7.34375  Z " fill-rule="nonzero" fill="#aaaaaa" stroke="none" transform="matrix(1 0 0 1 281 163 )" />
  </g>
</svg>