<?xml version="1.0" encoding="utf-8"?>
<svg version="1.1" xmlns:xlink="http://www.w3.org/1999/xlink" width="23px" height="24px" xmlns="http://www.w3.org/2000/svg">
  <g transform="matrix(1 0 0 1 -320 -163 )">
    <path d="M 22.416015625 1.078125  C 22.8053385416667 1.25520833333333  23 1.5625  23 2  L 23 9  C 23 9.27083333333333  22.9051649305556 9.50520833333333  22.7154947916667 9.703125  C 22.5258246527778 9.90104166666667  22.3012152777778 10  22.0416666666667 10  L 15.3333333333333 10  C 14.9140625 10  14.6195746527778 9.79166666666667  14.4498697916667 9.375  C 14.2801649305556 8.96875  14.3500434027778 8.609375  14.6595052083333 8.296875  L 16.7259114583333 6.140625  C 15.2484809027778 4.71354166666666  13.5065104166667 4  11.5 4  C 10.4618055555556 4  9.47102864583333 4.2109375  8.52766927083333 4.6328125  C 7.58430989583333 5.0546875  6.76822916666667 5.625  6.07942708333333 6.34375  C 5.390625 7.0625  4.84407552083333 7.9140625  4.43977864583333 8.8984375  C 4.03548177083333 9.8828125  3.83333333333333 10.9166666666667  3.83333333333333 12  C 3.83333333333333 13.0833333333333  4.03548177083333 14.1171875  4.43977864583333 15.1015625  C 4.84407552083333 16.0859375  5.390625 16.9375  6.07942708333333 17.65625  C 6.76822916666667 18.375  7.58430989583333 18.9453125  8.52766927083333 19.3671875  C 9.47102864583333 19.7890625  10.4618055555556 20  11.5 20  C 12.6879340277778 20  13.8109809027778 19.7291666666667  14.869140625 19.1875  C 15.9273003472222 18.6458333333333  16.8207465277778 17.8802083333333  17.5494791666667 16.890625  C 17.6193576388889 16.7864583333333  17.7341579861111 16.7239583333333  17.8938802083333 16.703125  C 18.0436197916667 16.703125  18.1684027777778 16.75  18.2682291666667 16.84375  L 20.3196614583333 19  C 20.4095052083333 19.0833333333333  20.4569227430556 19.1901041666667  20.4619140625 19.3203125  C 20.4669053819444 19.4505208333333  20.4294704861111 19.5677083333333  20.349609375 19.671875  C 19.2615017361111 21.046875  17.9437934027778 22.1119791666667  16.396484375 22.8671875  C 14.8491753472222 23.6223958333333  13.2170138888889 24  11.5 24  C 9.94270833333333 24  8.45529513888889 23.6822916666667  7.03776041666667 23.046875  C 5.62022569444445 22.4114583333333  4.39735243055556 21.5572916666667  3.369140625 20.484375  C 2.34092881944444 19.4114583333333  1.52235243055556 18.1354166666667  0.913411458333333 16.65625  C 0.304470486111111 15.1770833333333  0 13.625  0 12  C 0 10.375  0.304470486111111 8.82291666666667  0.913411458333333 7.34375  C 1.52235243055556 5.86458333333333  2.34092881944444 4.58854166666667  3.369140625 3.515625  C 4.39735243055556 2.44270833333333  5.62022569444445 1.58854166666667  7.03776041666667 0.953124999999999  C 8.45529513888889 0.317708333333333  9.94270833333333 0  11.5 0  C 12.9674479166667 0  14.3874782986111 0.289062500000001  15.7600911458333 0.8671875  C 17.1327039930556 1.4453125  18.3530815972222 2.26041666666666  19.4212239583333 3.3125  L 21.3678385416667 1.296875  C 21.6573350694444 0.973958333333333  22.0067274305556 0.901041666666664  22.416015625 1.078125  Z " fill-rule="nonzero" fill="#aaaaaa" stroke="none" transform="matrix(1 0 0 1 320 163 )" />
  </g>
</svg>