<?xml version="1.0" encoding="utf-8"?>
<svg version="1.1" xmlns:xlink="http://www.w3.org/1999/xlink" width="8px" height="14px" xmlns="http://www.w3.org/2000/svg">
  <g transform="matrix(1 0 0 1 -187 -172 )">
    <path d="M 7.8515625 0.461805555555556  C 7.95052083333333 0.769675925925923  8 1.13425925925926  8 1.55555555555556  C 8 1.97685185185185  7.95052083333333 2.34143518518518  7.8515625 2.64930555555556  L 4.3515625 13.5381944444444  C 4.25260416666667 13.8460648148148  4.13541666666667 14  4 14  C 3.86458333333333 14  3.74739583333333 13.8460648148148  3.6484375 13.5381944444444  L 0.1484375 2.64930555555556  C 0.0494791666666667 2.34143518518518  0 1.97685185185185  0 1.55555555555556  C 0 1.13425925925926  0.0494791666666667 0.769675925925923  0.1484375 0.461805555555556  C 0.247395833333333 0.153935185185183  0.364583333333333 0  0.5 0  L 7.5 0  C 7.63541666666667 0  7.75260416666667 0.153935185185183  7.8515625 0.461805555555556  Z " fill-rule="nonzero" fill="#000000" stroke="none" fill-opacity="0.717647058823529" transform="matrix(1 0 0 1 187 172 )" />
  </g>
</svg>