<?xml version="1.0" encoding="utf-8"?>
<svg version="1.1" xmlns:xlink="http://www.w3.org/1999/xlink" width="25px" height="21px" xmlns="http://www.w3.org/2000/svg">
  <g transform="matrix(1 0 0 1 -194 -606 )">
    <path d="M 194 606  L 219 606  L 219 627  L 194 627  L 194 606  " fill-rule="nonzero" fill="#cccccc" stroke="none" />
    <path d="M 195 607  L 218 607  L 218 626  L 195 626  L 195 607  " fill-rule="nonzero" fill="#ffffff" stroke="none" />
    <path d="M 208.575 612.3  C 207.693 612.3  207 611.607  207 610.725  C 207 609.843  207.693 609.15  208.575 609.15  C 209.457 609.15  210.15 609.843  210.15 610.725  C 210.15 611.607  209.457 612.3  208.575 612.3  " fill-rule="nonzero" fill="#cccccc" stroke="none" />
    <path d="M 196 626  L 196 616.1  L 201.5 611.6  L 209.2 616.928  L 213.6 614.3  L 218 616.928  L 218 626  L 196 626  " fill-rule="nonzero" fill="#169bd5" stroke="none" />
  </g>
</svg>