<?xml version="1.0" encoding="utf-8"?>
<svg version="1.1" xmlns:xlink="http://www.w3.org/1999/xlink" width="28px" height="27px" xmlns="http://www.w3.org/2000/svg">
  <g transform="matrix(1 0 0 1 -225 -164 )">
    <path d="M 7 18  L 7 24.75  L 21 24.75  L 21 18  L 7 18  Z M 23.3333333333333 17.4375  L 23.3333333333333 24.75  L 25.6666666666667 24.75  L 25.6666666666667 9  C 25.6666666666667 8.8359375  25.6059027777778 8.6103515625  25.484375 8.3232421875  C 25.3628472222222 8.0361328125  25.2413194444444 7.833984375  25.1197916666667 7.716796875  L 19.9973958333333 2.77734375  C 19.8758680555556 2.66015625  19.6692708333333 2.54296875  19.3776041666667 2.42578125  C 19.0859375 2.30859375  18.8489583333333 2.25  18.6666666666667 2.25  L 18.6666666666667 9.5625  C 18.6666666666667 10.03125  18.4965277777778 10.4296875  18.15625 10.7578125  C 17.8159722222222 11.0859375  17.4027777777778 11.25  16.9166666666667 11.25  L 6.41666666666667 11.25  C 5.93055555555556 11.25  5.51736111111111 11.0859375  5.17708333333333 10.7578125  C 4.83680555555556 10.4296875  4.66666666666667 10.03125  4.66666666666667 9.5625  L 4.66666666666667 2.25  L 2.33333333333333 2.25  L 2.33333333333333 24.75  L 4.66666666666667 24.75  L 4.66666666666667 17.4375  C 4.66666666666667 16.96875  4.83680555555556 16.5703125  5.17708333333333 16.2421875  C 5.51736111111111 15.9140625  5.93055555555556 15.75  6.41666666666667 15.75  L 21.5833333333333 15.75  C 22.0694444444444 15.75  22.4826388888889 15.9140625  22.8229166666667 16.2421875  C 23.1631944444444 16.5703125  23.3333333333333 16.96875  23.3333333333333 17.4375  Z M 16.16015625 8.8330078125  C 16.2756076388889 8.7216796875  16.3333333333333 8.58984375  16.3333333333333 8.4375  L 16.3333333333333 2.8125  C 16.3333333333333 2.66015625  16.2756076388889 2.5283203125  16.16015625 2.4169921875  C 16.0447048611111 2.3056640625  15.9079861111111 2.25  15.75 2.25  L 12.25 2.25  C 12.0920138888889 2.25  11.9552951388889 2.3056640625  11.83984375 2.4169921875  C 11.7243923611111 2.5283203125  11.6666666666667 2.66015625  11.6666666666667 2.8125  L 11.6666666666667 8.4375  C 11.6666666666667 8.58984375  11.7243923611111 8.7216796875  11.83984375 8.8330078125  C 11.9552951388889 8.9443359375  12.0920138888889 9  12.25 9  L 15.75 9  C 15.9079861111111 9  16.0447048611111 8.9443359375  16.16015625 8.8330078125  Z M 27.6354166666667 7.453125  C 27.8784722222222 8.015625  28 8.53125  28 9  L 28 25.3125  C 28 25.78125  27.8298611111111 26.1796875  27.4895833333333 26.5078125  C 27.1493055555556 26.8359375  26.7361111111111 27  26.25 27  L 1.75 27  C 1.26388888888889 27  0.850694444444445 26.8359375  0.510416666666667 26.5078125  C 0.170138888888889 26.1796875  0 25.78125  0 25.3125  L 0 1.6875  C 0 1.21875  0.170138888888889 0.820312499999996  0.510416666666667 0.492187499999999  C 0.850694444444445 0.164062499999999  1.26388888888889 0  1.75 0  L 18.6666666666667 0  C 19.1527777777778 0  19.6875 0.117187499999997  20.2708333333333 0.351562500000001  C 20.8541666666667 0.585937499999999  21.3159722222222 0.867187499999998  21.65625 1.1953125  L 26.7604166666667 6.1171875  C 27.1006944444444 6.4453125  27.3923611111111 6.890625  27.6354166666667 7.453125  Z " fill-rule="nonzero" fill="#aaaaaa" stroke="none" transform="matrix(1 0 0 1 225 164 )" />
  </g>
</svg>