<?xml version="1.0" encoding="utf-8"?>
<svg version="1.1" xmlns:xlink="http://www.w3.org/1999/xlink" width="26px" height="21px" xmlns="http://www.w3.org/2000/svg">
  <g transform="matrix(1 0 0 1 -231 -612 )">
    <path d="M 22.4950980392157 16.3033088235294  C 22.7924836601307 16.063112745098  22.9411764705882 15.7757352941176  22.9411764705882 15.4411764705882  C 22.9411764705882 15.0980392156863  22.7924836601307 14.8063725490196  22.4950980392157 14.5661764705882  L 19.1813725490196 11.8897058823529  C 18.8839869281046 11.6495098039216  18.5228758169935 11.5294117647059  18.0980392156863 11.5294117647059  C 17.6519607843137 11.5294117647059  17.2696078431373 11.6666666666667  16.9509803921569 11.9411764705882  C 16.9828431372549 11.9669117647059  17.0837418300654 12.046262254902  17.2536764705882 12.1792279411765  C 17.4236111111111 12.312193627451  17.5377859477124 12.4044117647059  17.5962009803922 12.4558823529412  C 17.6546160130719 12.5073529411765  17.734272875817 12.5888480392157  17.8351715686274 12.7003676470588  C 17.9360702614379 12.811887254902  18.0051062091503 12.921262254902  18.0422794117647 13.0284926470588  C 18.0794526143791 13.1357230392157  18.0980392156863 13.2536764705882  18.0980392156863 13.3823529411765  C 18.0980392156863 13.7254901960784  17.9493464052288 14.0171568627451  17.6519607843137 14.2573529411765  C 17.3545751633987 14.4975490196078  16.9934640522876 14.6176470588235  16.5686274509804 14.6176470588235  C 16.4093137254902 14.6176470588235  16.2632761437909 14.6026348039216  16.1305147058824 14.5726102941176  C 15.9977532679739 14.5425857843137  15.8623366013072 14.4868259803922  15.7242647058824 14.4053308823529  C 15.5861928104575 14.3238357843137  15.4852941176471 14.2594975490196  15.421568627451 14.2123161764706  C 15.3578431372549 14.1651348039216  15.2436683006536 14.0729166666667  15.0790441176471 13.9356617647059  C 14.9144199346405 13.7984068627451  14.8161764705882 13.7169117647059  14.7843137254902 13.6911764705882  C 14.4338235294118 13.9571078431373  14.2585784313726 14.2702205882353  14.2585784313726 14.6305147058824  C 14.2585784313726 14.9736519607843  14.4072712418301 15.265318627451  14.7046568627451 15.5055147058824  L 17.9865196078431 18.1691176470588  C 18.2732843137255 18.4007352941176  18.6343954248366 18.5165441176471  19.0698529411765 18.5165441176471  C 19.4946895424837 18.5165441176471  19.8558006535948 18.4050245098039  20.1531862745098 18.1819852941176  L 22.4950980392157 16.3033088235294  Z M 11.2156862745098 7.30882352941176  C 11.5661764705882 7.04289215686274  11.7414215686275 6.72977941176471  11.7414215686275 6.36948529411765  C 11.7414215686275 6.02634803921569  11.5927287581699 5.73468137254902  11.2953431372549 5.49448529411765  L 8.01348039215686 2.83088235294118  C 7.71609477124183 2.5906862745098  7.35498366013072 2.47058823529412  6.93014705882353 2.47058823529412  C 6.51593137254902 2.47058823529412  6.15482026143791 2.58639705882353  5.8468137254902 2.81801470588235  L 3.50490196078431 4.69669117647059  C 3.20751633986928 4.93688725490196  3.05882352941176 5.22426470588235  3.05882352941176 5.55882352941176  C 3.05882352941176 5.90196078431372  3.20751633986928 6.19362745098039  3.50490196078431 6.43382352941177  L 6.81862745098039 9.11029411764706  C 7.10539215686275 9.34191176470588  7.46650326797386 9.45772058823529  7.90196078431373 9.45772058823529  C 8.34803921568628 9.45772058823529  8.73039215686275 9.32475490196078  9.04901960784314 9.05882352941176  C 9.0171568627451 9.03308823529412  8.91625816993464 8.95373774509804  8.74632352941176 8.82077205882353  C 8.57638888888889 8.68780637254902  8.46221405228758 8.59558823529412  8.40379901960784 8.54411764705882  C 8.34538398692811 8.49264705882353  8.26572712418301 8.41115196078431  8.16482843137255 8.29963235294118  C 8.06392973856209 8.18811274509804  7.99489379084967 8.07873774509804  7.95772058823529 7.97150735294118  C 7.92054738562092 7.86427696078431  7.90196078431373 7.74632352941177  7.90196078431373 7.61764705882353  C 7.90196078431373 7.27450980392157  8.05065359477124 6.9828431372549  8.34803921568628 6.74264705882353  C 8.64542483660131 6.50245098039215  9.00653594771242 6.38235294117647  9.43137254901961 6.38235294117647  C 9.5906862745098 6.38235294117647  9.73672385620915 6.39736519607843  9.86948529411765 6.42738970588235  C 10.0022467320261 6.45741421568627  10.1376633986928 6.51317401960784  10.2757352941176 6.59466911764706  C 10.4138071895425 6.67616421568627  10.5147058823529 6.74050245098039  10.578431372549 6.78768382352941  C 10.6421568627451 6.83486519607843  10.7563316993464 6.92708333333333  10.9209558823529 7.06433823529412  C 11.0855800653595 7.2015931372549  11.1838235294118 7.28308823529412  11.2156862745098 7.30882352941176  Z M 24.6617647058824 12.8161764705882  C 25.5539215686274 13.5367647058824  26 14.4117647058824  26 15.4411764705882  C 26 16.4705882352941  25.5486111111111 17.3412990196078  24.6458333333333 18.0533088235294  L 22.3039215686274 19.9319852941176  C 21.422385620915 20.6439950980392  20.344362745098 21  19.0698529411765 21  C 17.7847222222222 21  16.7013888888889 20.6354166666667  15.8198529411765 19.90625  L 12.5379901960784 17.2426470588235  C 11.656454248366 16.530637254902  11.2156862745098 15.6599264705882  11.2156862745098 14.6305147058824  C 11.2156862745098 13.5753676470588  11.6830065359477 12.6789215686274  12.6176470588235 11.9411764705882  L 11.2156862745098 10.8088235294118  C 10.3022875816993 11.5637254901961  9.19771241830065 11.9411764705882  7.90196078431373 11.9411764705882  C 6.62745098039216 11.9411764705882  5.54411764705882 11.5808823529412  4.65196078431373 10.8602941176471  L 1.33823529411765 8.18382352941176  C 0.446078431372549 7.46323529411765  0 6.58823529411765  0 5.55882352941176  C 0 4.52941176470588  0.451388888888889 3.65870098039216  1.35416666666667 2.94669117647059  L 3.69607843137255 1.06801470588235  C 4.57761437908497 0.356004901960783  5.65563725490196 0  6.93014705882353 0  C 8.21527777777778 0  9.29861111111111 0.364583333333332  10.1801470588235 1.09375  L 13.4620098039216 3.75735294117647  C 14.343545751634 4.46936274509804  14.7843137254902 5.34007352941176  14.7843137254902 6.36948529411765  C 14.7843137254902 7.42463235294118  14.3169934640523 8.32107843137255  13.3823529411765 9.05882352941176  L 14.7843137254902 10.1911764705882  C 15.6977124183007 9.43627450980392  16.8022875816993 9.05882352941176  18.0980392156863 9.05882352941176  C 19.3725490196078 9.05882352941176  20.4558823529412 9.41911764705882  21.3480392156863 10.1397058823529  L 24.6617647058824 12.8161764705882  Z " fill-rule="nonzero" fill="#aaaaaa" stroke="none" transform="matrix(1 0 0 1 231 612 )" />
  </g>
</svg>