<?xml version="1.0" encoding="utf-8"?>
<svg version="1.1" xmlns:xlink="http://www.w3.org/1999/xlink" width="24px" height="18px" xmlns="http://www.w3.org/2000/svg">
  <g transform="matrix(1 0 0 1 -19 -245 )">
    <path d="M 17.109375 2.314453125  C 15.5245535714286 1.771484375  13.8214285714286 1.5  12 1.5  C 10.1785714285714 1.5  8.47544642857143 1.771484375  6.890625 2.314453125  C 5.30580357142857 2.857421875  4.046875 3.58984375  3.11383928571429 4.51171875  C 2.18080357142857 5.43359375  1.71428571428571 6.4296875  1.71428571428571 7.5  C 1.71428571428571 8.375  2.03348214285714 9.208984375  2.671875 10.001953125  C 3.31026785714286 10.794921875  4.20982142857143 11.48046875  5.37053571428571 12.05859375  L 6.53571428571428 12.64453125  L 6.17410714285714 13.76953125  C 5.95982142857143 14.48046875  5.64732142857143 15.15234375  5.23660714285714 15.78515625  C 6.59375 15.29296875  7.82142857142857 14.625  8.91964285714286 13.78125  L 9.49553571428572 13.3359375  L 10.2589285714286 13.40625  C 10.875 13.46875  11.4553571428571 13.5  12 13.5  C 13.8214285714286 13.5  15.5245535714286 13.228515625  17.109375 12.685546875  C 18.6941964285714 12.142578125  19.953125 11.41015625  20.8861607142857 10.48828125  C 21.8191964285714 9.56640625  22.2857142857143 8.5703125  22.2857142857143 7.5  C 22.2857142857143 6.4296875  21.8191964285714 5.43359375  20.8861607142857 4.51171875  C 19.953125 3.58984375  18.6941964285714 2.857421875  17.109375 2.314453125  Z M 22.3928571428571 3.732421875  C 23.4642857142857 4.884765625  24 6.140625  24 7.5  C 24 8.859375  23.4642857142857 10.115234375  22.3928571428571 11.267578125  C 21.3214285714286 12.419921875  19.8660714285714 13.330078125  18.0267857142857 13.998046875  C 16.1875 14.666015625  14.1785714285714 15  12 15  C 11.375 15  10.7276785714286 14.96875  10.0580357142857 14.90625  C 8.29017857142857 16.2734375  6.23660714285714 17.21875  3.89732142857143 17.7421875  C 3.45982142857143 17.8515625  2.95089285714286 17.9375  2.37053571428571 18  L 2.30357142857143 18  C 2.16964285714286 18  2.04910714285714 17.958984375  1.94196428571429 17.876953125  C 1.83482142857143 17.794921875  1.76339285714286 17.6875  1.72767857142857 17.5546875  L 1.72767857142857 17.54296875  C 1.70089285714286 17.51171875  1.69866071428571 17.46484375  1.72098214285714 17.40234375  C 1.74330357142857 17.33984375  1.75223214285714 17.30078125  1.74776785714286 17.28515625  C 1.74330357142857 17.26953125  1.76339285714286 17.232421875  1.80803571428571 17.173828125  L 1.88839285714286 17.068359375  C 1.88839285714286 17.068359375  1.91964285714286 17.03515625  1.98214285714286 16.96875  C 2.04464285714286 16.90234375  2.08035714285714 16.8671875  2.08928571428571 16.86328125  C 2.15178571428571 16.80078125  2.29017857142857 16.666015625  2.50446428571429 16.458984375  C 2.71875 16.251953125  2.87276785714286 16.103515625  2.96651785714286 16.013671875  C 3.06026785714286 15.923828125  3.19866071428571 15.76953125  3.38169642857143 15.55078125  C 3.56473214285714 15.33203125  3.70982142857143 15.1328125  3.81696428571429 14.953125  C 3.92410714285714 14.7734375  4.04464285714286 14.54296875  4.17857142857143 14.26171875  C 4.3125 13.98046875  4.42857142857143 13.68359375  4.52678571428571 13.37109375  C 3.125 12.67578125  2.02008928571429 11.81640625  1.21205357142857 10.79296875  C 0.404017857142857 9.76953125  0 8.671875  0 7.5  C 0 6.140625  0.535714285714286 4.884765625  1.60714285714286 3.732421875  C 2.67857142857143 2.580078125  4.13392857142857 1.669921875  5.97321428571429 1.001953125  C 7.8125 0.333984375  9.82142857142857 0  12 0  C 14.1785714285714 0  16.1875 0.333984375  18.0267857142857 1.001953125  C 19.8660714285714 1.669921875  21.3214285714286 2.580078125  22.3928571428571 3.732421875  Z " fill-rule="nonzero" fill="#555555" stroke="none" transform="matrix(1 0 0 1 19 245 )" />
  </g>
</svg>