<?xml version="1.0" encoding="utf-8"?>
<svg version="1.1" xmlns:xlink="http://www.w3.org/1999/xlink" width="24px" height="26px" xmlns="http://www.w3.org/2000/svg">
  <g transform="matrix(1 0 0 1 -19 -291 )">
    <path d="M 14.828125 16.0638020833333  C 15.609375 15.2174479166667  16 14.1961805555556  16 13  C 16 11.8038194444444  15.609375 10.7825520833333  14.828125 9.93619791666667  C 14.046875 9.08984375  13.1041666666667 8.66666666666667  12 8.66666666666667  C 10.8958333333333 8.66666666666667  9.953125 9.08984375  9.171875 9.93619791666667  C 8.390625 10.7825520833333  8 11.8038194444444  8 13  C 8 14.1961805555556  8.390625 15.2174479166667  9.171875 16.0638020833333  C 9.953125 16.91015625  10.8958333333333 17.3333333333333  12 17.3333333333333  C 13.1041666666667 17.3333333333333  14.046875 16.91015625  14.828125 16.0638020833333  Z M 23.875 10.7571614583333  C 23.9583333333333 10.8756510416667  24 11.0082465277778  24 11.1549479166667  L 24 14.9127604166667  C 24 15.0481770833333  23.9583333333333 15.1779513888889  23.875 15.3020833333333  C 23.7916666666667 15.4262152777778  23.6875 15.4995659722222  23.5625 15.5221354166667  L 20.671875 15.99609375  C 20.4739583333333 16.60546875  20.2708333333333 17.1189236111111  20.0625 17.5364583333333  C 20.4270833333333 18.1006944444444  20.984375 18.8793402777778  21.734375 19.8723958333333  C 21.8385416666667 20.0078125  21.890625 20.1488715277778  21.890625 20.2955729166667  C 21.890625 20.4422743055556  21.84375 20.5720486111111  21.75 20.6848958333333  C 21.46875 21.1024305555556  20.953125 21.7118055555556  20.203125 22.5130208333333  C 19.453125 23.3142361111111  18.9635416666667 23.71484375  18.734375 23.71484375  C 18.609375 23.71484375  18.4739583333333 23.6640625  18.328125 23.5625  L 16.171875 21.734375  C 15.7135416666667 21.9939236111111  15.2395833333333 22.2083333333333  14.75 22.3776041666667  C 14.5833333333333 23.9123263888889  14.4322916666667 24.9618055555556  14.296875 25.5260416666667  C 14.2239583333333 25.8420138888889  14.0364583333333 26  13.734375 26  L 10.265625 26  C 10.1197916666667 26  9.9921875 25.9520399305556  9.8828125 25.8561197916667  C 9.7734375 25.7601996527778  9.71354166666667 25.6388888888889  9.703125 25.4921875  L 9.265625 22.3776041666667  C 8.75520833333333 22.1970486111111  8.28645833333333 21.98828125  7.859375 21.7513020833333  L 5.65625 23.5625  C 5.55208333333333 23.6640625  5.421875 23.71484375  5.265625 23.71484375  C 5.11979166666667 23.71484375  4.98958333333333 23.6527777777778  4.875 23.5286458333333  C 3.5625 22.2421875  2.703125 21.2942708333333  2.296875 20.6848958333333  C 2.22395833333333 20.5720486111111  2.1875 20.4422743055556  2.1875 20.2955729166667  C 2.1875 20.16015625  2.22916666666667 20.0303819444444  2.3125 19.90625  C 2.46875 19.6692708333333  2.734375 19.2940538194444  3.109375 18.7805989583333  C 3.484375 18.2671440972222  3.765625 17.8693576388889  3.953125 17.5872395833333  C 3.671875 17.0230034722222  3.45833333333333 16.4644097222222  3.3125 15.9114583333333  L 0.453125 15.4544270833333  C 0.317708333333333 15.4318576388889  0.208333333333333 15.361328125  0.125 15.2428385416667  C 0.0416666666666667 15.1243489583333  0 14.9917534722222  0 14.8450520833333  L 0 11.0872395833333  C 0 10.9518229166667  0.0416666666666667 10.8220486111111  0.125 10.6979166666667  C 0.208333333333333 10.5737847222222  0.307291666666667 10.5004340277778  0.421875 10.4778645833333  L 3.328125 10.00390625  C 3.47395833333333 9.48480902777778  3.67708333333333 8.96571180555556  3.9375 8.44661458333333  C 3.52083333333333 7.80338541666667  2.96354166666667 7.02473958333333  2.265625 6.11067708333333  C 2.16145833333333 5.97526041666667  2.109375 5.83984375  2.109375 5.70442708333333  C 2.109375 5.59157986111111  2.15625 5.46180555555555  2.25 5.31510416666667  C 2.52083333333333 4.90885416666667  3.03385416666667 4.30230034722222  3.7890625 3.49544270833333  C 4.54427083333333 2.68858506944444  5.03645833333333 2.28515625  5.265625 2.28515625  C 5.40104166666667 2.28515625  5.53645833333333 2.34157986111111  5.671875 2.45442708333333  L 7.828125 4.265625  C 8.28645833333333 4.00607638888889  8.76041666666667 3.79166666666667  9.25 3.62239583333333  C 9.41666666666667 2.08767361111111  9.56770833333333 1.03819444444444  9.703125 0.473958333333332  C 9.77604166666667 0.15798611111111  9.96354166666667 0  10.265625 0  L 13.734375 0  C 13.8802083333333 0  14.0078125 0.0479600694444422  14.1171875 0.143880208333332  C 14.2265625 0.23980034722222  14.2864583333333 0.36111111111111  14.296875 0.5078125  L 14.734375 3.62239583333333  C 15.2447916666667 3.80295138888889  15.7135416666667 4.01171875  16.140625 4.24869791666667  L 18.359375 2.4375  C 18.453125 2.3359375  18.578125 2.28515625  18.734375 2.28515625  C 18.8697916666667 2.28515625  19 2.34157986111111  19.125 2.45442708333333  C 20.46875 3.79730902777778  21.328125 4.75651041666667  21.703125 5.33203125  C 21.7760416666667 5.42230902777778  21.8125 5.54644097222222  21.8125 5.70442708333333  C 21.8125 5.83984375  21.7708333333333 5.96961805555555  21.6875 6.09375  C 21.53125 6.33072916666667  21.265625 6.70594618055555  20.890625 7.21940104166667  C 20.515625 7.73285590277778  20.234375 8.13064236111111  20.046875 8.41276041666667  C 20.3177083333333 8.97699652777778  20.53125 9.52994791666666  20.6875 10.0716145833333  L 23.546875 10.5455729166667  C 23.6822916666667 10.5681423611111  23.7916666666667 10.638671875  23.875 10.7571614583333  Z " fill-rule="nonzero" fill="#555555" stroke="none" transform="matrix(1 0 0 1 19 291 )" />
  </g>
</svg>