<?xml version="1.0" encoding="utf-8"?>
<svg version="1.1" xmlns:xlink="http://www.w3.org/1999/xlink" width="25px" height="24px" xmlns="http://www.w3.org/2000/svg">
  <g transform="matrix(1 0 0 1 -341 -54 )">
    <path d="M 4.54545454545455 17.4545454545455  L 6.81818181818182 17.4545454545455  L 6.81818181818182 19.6363636363636  L 4.54545454545455 19.6363636363636  L 4.54545454545455 17.4545454545455  Z M 4.54545454545455 4.36363636363636  L 6.81818181818182 4.36363636363636  L 6.81818181818182 6.54545454545455  L 4.54545454545455 6.54545454545455  L 4.54545454545455 4.36363636363636  Z M 18.1818181818182 4.36363636363636  L 20.4545454545455 4.36363636363636  L 20.4545454545455 6.54545454545455  L 18.1818181818182 6.54545454545455  L 18.1818181818182 4.36363636363636  Z M 2.27272727272727 15.2727272727273  L 2.27272727272727 21.8011363636364  L 9.09090909090909 21.8011363636364  L 9.09090909090909 15.2727272727273  L 2.27272727272727 15.2727272727273  Z M 2.27272727272727 2.18181818181818  L 2.27272727272727 8.72727272727273  L 9.09090909090909 8.72727272727273  L 9.09090909090909 2.18181818181818  L 2.27272727272727 2.18181818181818  Z M 15.9090909090909 2.18181818181818  L 15.9090909090909 8.72727272727273  L 22.7272727272727 8.72727272727273  L 22.7272727272727 2.18181818181818  L 15.9090909090909 2.18181818181818  Z M 0 13  L 11.3636363636364 13  L 11.3636363636364 24  L 0 24  L 0 13  Z M 18.1818181818182 21.8181818181818  L 20.4545454545455 21.8181818181818  L 20.4545454545455 24  L 18.1818181818182 24  L 18.1818181818182 21.8181818181818  Z M 22.7272727272727 21.8181818181818  L 25 21.8181818181818  L 25 24  L 22.7272727272727 24  L 22.7272727272727 21.8181818181818  Z M 22.7272727272727 13.0909090909091  L 25 13.0909090909091  L 25 19.6363636363636  L 18.1818181818182 19.6363636363636  L 18.1818181818182 17.4545454545455  L 15.9090909090909 17.4545454545455  L 15.9090909090909 24  L 13.6363636363636 24  L 13.6363636363636 13.0909090909091  L 20.4545454545455 13.0909090909091  L 20.4545454545455 15.2727272727273  L 22.7272727272727 15.2727272727273  L 22.7272727272727 13.0909090909091  Z M 0 0  L 11.3636363636364 0  L 11.3636363636364 11  L 0 11  L 0 0  Z M 13.6363636363636 0  L 25 0  L 25 11  L 13.6363636363636 11  L 13.6363636363636 0  Z " fill-rule="nonzero" fill="#7f7f7f" stroke="none" transform="matrix(1 0 0 1 341 54 )" />
  </g>
</svg>