<?xml version="1.0" encoding="utf-8"?>
<svg version="1.1" xmlns:xlink="http://www.w3.org/1999/xlink" width="10px" height="13px" xmlns="http://www.w3.org/2000/svg">
  <g transform="matrix(1 0 0 1 -27 -245 )">
    <path d="M 9.703125 10.8117897727273  C 9.90104166666667 10.928740530303  10 11.0672348484848  10 11.2272727272727  L 10 12.4090909090909  C 10 12.5691287878788  9.90104166666667 12.7076231060606  9.703125 12.8245738636364  C 9.50520833333333 12.9415246212121  9.27083333333333 13  9 13  L 1 13  C 0.729166666666667 13  0.494791666666667 12.9415246212121  0.296875 12.8245738636364  C 0.0989583333333333 12.7076231060606  0 12.5691287878788  0 12.4090909090909  L 0 11.2272727272727  C 0 11.0672348484848  0.0989583333333333 10.928740530303  0.296875 10.8117897727273  C 0.494791666666667 10.6948390151515  0.729166666666667 10.6363636363636  1 10.6363636363636  L 2 10.6363636363636  L 2 7.09090909090909  L 1 7.09090909090909  C 0.729166666666667 7.09090909090909  0.494791666666667 7.03243371212121  0.296875 6.91548295454546  C 0.0989583333333333 6.7985321969697  0 6.66003787878788  0 6.5  L 0 5.31818181818182  C 0 5.15814393939394  0.0989583333333333 5.01964962121212  0.296875 4.90269886363636  C 0.494791666666667 4.7857481060606  0.729166666666667 4.72727272727273  1 4.72727272727273  L 7 4.72727272727273  C 7.27083333333333 4.72727272727273  7.50520833333333 4.7857481060606  7.703125 4.90269886363636  C 7.90104166666667 5.01964962121212  8 5.15814393939394  8 5.31818181818182  L 8 10.6363636363636  L 9 10.6363636363636  C 9.27083333333333 10.6363636363636  9.50520833333333 10.6948390151515  9.703125 10.8117897727273  Z M 7.703125 0.175426136363637  C 7.90104166666667 0.292376893939392  8 0.430871212121211  8 0.59090909090909  L 8 2.36363636363636  C 8 2.52367424242424  7.90104166666667 2.66216856060606  7.703125 2.77911931818182  C 7.50520833333333 2.89607007575757  7.27083333333333 2.95454545454546  7 2.95454545454546  L 3 2.95454545454546  C 2.72916666666667 2.95454545454546  2.49479166666667 2.89607007575757  2.296875 2.77911931818182  C 2.09895833333333 2.66216856060606  2 2.52367424242424  2 2.36363636363636  L 2 0.59090909090909  C 2 0.430871212121211  2.09895833333333 0.292376893939392  2.296875 0.175426136363637  C 2.49479166666667 0.0584753787878776  2.72916666666667 0  3 0  L 7 0  C 7.27083333333333 0  7.50520833333333 0.0584753787878776  7.703125 0.175426136363637  Z " fill-rule="nonzero" fill="#7f7f7f" stroke="none" transform="matrix(1 0 0 1 27 245 )" />
  </g>
</svg>