<?xml version="1.0" encoding="utf-8"?>
<svg version="1.1" xmlns:xlink="http://www.w3.org/1999/xlink" width="28px" height="23px" xmlns="http://www.w3.org/2000/svg">
  <g transform="matrix(1 0 0 1 -19 -194 )">
    <path d="M 27.9403409090909 17.8217329545455  C 27.9801136363636 17.8979640151515  28 18.0123106060606  28 18.1647727272727  C 28 18.4588068181818  27.9337121212121 18.8426846590909  27.8011363636364 19.31640625  C 27.6685606060606 19.7901278409091  27.5293560606061 20.163115530303  27.3835227272727 20.4353693181818  C 27.1051136363636 20.9798768939394  26.2964015151515 21.5570549242424  24.9573863636364 22.1669034090909  C 23.7111742424242 22.7223011363636  22.4782196969697 23  21.2585227272727 23  C 20.9005681818182 23  20.5492424242424 22.9809422348485  20.2045454545455 22.9428267045455  C 19.8598484848485 22.9047111742424  19.4786931818182 22.8366477272727  19.0610795454545 22.7386363636364  C 18.6434659090909 22.640625  18.3319128787879 22.5616714015152  18.1264204545455 22.5017755681818  C 17.920928030303 22.4418797348485  17.5530303030303 22.3302556818182  17.0227272727273 22.1669034090909  C 16.4924242424242 22.0035511363636  16.1676136363636 21.9055397727273  16.0482954545455 21.8728693181818  C 14.749053030303 21.4917140151515  13.5890151515152 21.0397727272727  12.5681818181818 20.5170454545455  C 10.8844696969697 19.6567234848485  9.1344696969697 18.4805871212121  7.31818181818182 16.9886363636364  C 5.50189393939394 15.4966856060606  4.07007575757576 14.0591856060606  3.02272727272727 12.6761363636364  C 2.38636363636364 11.8375946969697  1.83617424242424 10.8847064393939  1.37215909090909 9.81747159090909  C 1.33238636363636 9.71946022727272  1.21306818181818 9.45265151515151  1.01420454545455 9.01704545454546  C 0.815340909090909 8.58143939393939  0.679450757575758 8.27923768939394  0.606534090909091 8.11044034090909  C 0.533617424242424 7.94164299242424  0.4375 7.68572443181818  0.318181818181818 7.34268465909091  C 0.198863636363636 6.99964488636363  0.116003787878788 6.68655303030303  0.0696022727272727 6.40340909090909  C 0.0232007575757576 6.12026515151515  0 5.83167613636364  0 5.53764204545455  C 0 4.5357481060606  0.338068181818182 3.52296401515151  1.01420454545455 2.49928977272727  C 1.75662878787879 1.39938446969697  2.4592803030303 0.735085227272728  3.12215909090909 0.506392045454545  C 3.45359848484849 0.386600378787877  3.90767045454545 0.272253787878785  4.484375 0.163352272727272  C 5.06107954545455 0.0544507575757566  5.52840909090909 0  5.88636363636364 0  C 6.0719696969697 0  6.21117424242424 0.0163352272727277  6.30397727272727 0.0490056818181807  C 6.54261363636364 0.114346590909092  6.89393939393939 0.528172348484848  7.35795454545455 1.29048295454546  C 7.50378787878788 1.49739583333333  7.70265151515152 1.79142992424242  7.95454545454546 2.17258522727273  C 8.20643939393939 2.55374053030303  8.43844696969697 2.89950284090909  8.65056818181818 3.20987215909091  C 8.86268939393939 3.52024147727273  9.06818181818182 3.81155303030303  9.26704545454546 4.08380681818182  C 9.30681818181818 4.12736742424242  9.42282196969697 4.26349431818182  9.61505681818182 4.4921875  C 9.80729166666667 4.72088068181818  9.94981060606061 4.91418087121212  10.0426136363636 5.07208806818182  C 10.1354166666667 5.22999526515151  10.1818181818182 5.38517992424242  10.1818181818182 5.53764204545455  C 10.1818181818182 5.75544507575757  9.99289772727273 6.02769886363636  9.61505681818182 6.35440340909091  C 9.23721590909091 6.68110795454546  8.82623106060606 6.98058712121212  8.38210227272727 7.25284090909091  C 7.93797348484849 7.52509469696969  7.52698863636364 7.81368371212121  7.14914772727273 8.11860795454546  C 6.77130681818182 8.4235321969697  6.58238636363636 8.67400568181818  6.58238636363636 8.87002840909091  C 6.58238636363636 8.96803977272727  6.6155303030303 9.09055397727273  6.68181818181818 9.23757102272727  C 6.74810606060606 9.38458806818182  6.80445075757576 9.49621212121212  6.85085227272727 9.57244318181818  C 6.89725378787879 9.64867424242424  6.99005681818182 9.77935606060606  7.12926136363636 9.96448863636364  C 7.26846590909091 10.1496212121212  7.34469696969697 10.2530776515152  7.35795454545455 10.2748579545455  C 8.3655303030303 11.7668087121212  9.51893939393939 13.0464015151515  10.8181818181818 14.1136363636364  C 12.1174242424242 15.1808712121212  13.6751893939394 16.1283143939394  15.4914772727273 16.9559659090909  C 15.5179924242424 16.9668560606061  15.6439393939394 17.0294744318182  15.8693181818182 17.1438210227273  C 16.094696969697 17.2581676136364  16.2537878787879 17.3343986742424  16.3465909090909 17.3725142045455  C 16.4393939393939 17.4106297348485  16.5752840909091 17.4569128787879  16.7542613636364 17.5113636363636  C 16.9332386363636 17.5658143939394  17.0823863636364 17.5930397727273  17.2017045454545 17.5930397727273  C 17.4403409090909 17.5930397727273  17.7452651515152 17.4378551136364  18.1164772727273 17.1274857954545  C 18.4876893939394 16.8171164772727  18.8390151515152 16.479521780303  19.1704545454545 16.1147017045455  C 19.5018939393939 15.7498816287879  19.8664772727273 15.4122869318182  20.2642045454545 15.1019176136364  C 20.6619318181818 14.7915482954545  20.9933712121212 14.6363636363636  21.2585227272727 14.6363636363636  C 21.4441287878788 14.6363636363636  21.6330492424242 14.6744791666667  21.8252840909091 14.7507102272727  C 22.0175189393939 14.8269412878788  22.2528409090909 14.9440104166667  22.53125 15.1019176136364  C 22.8096590909091 15.2598248106061  22.9753787878788 15.3551136363636  23.0284090909091 15.3877840909091  C 23.3598484848485 15.5511363636364  23.7144886363636 15.7199337121212  24.0923295454545 15.8941761363636  C 24.4701704545455 16.0684185606061  24.8910984848485 16.2589962121212  25.3551136363636 16.4659090909091  C 25.8191287878788 16.672821969697  26.1770833333333 16.8361742424242  26.4289772727273 16.9559659090909  C 27.3570075757576 17.3371212121212  27.8607954545455 17.6257102272727  27.9403409090909 17.8217329545455  Z " fill-rule="nonzero" fill="#555555" stroke="none" transform="matrix(1 0 0 1 19 194 )" />
  </g>
</svg>